<svg xmlns="http://www.w3.org/2000/svg" xmlns:xlink="http://www.w3.org/1999/xlink" version="1.1" id="Layer_1" x="0px" y="0px" width="269px" height="170px" viewBox="0 0 269 170" enable-background="new 0 0 269 170" xml:space="preserve">
  <g>
    <rect fill="#EC654B" width="269" height="170"/>
    <path fill="#FFFFFF" d="M111.7 99.7l23.3 19.4 -0.1 0L111.7 99.7zM135 114.5L113.9 97 135 114.5 135 114.5zM192.5 68.7v70.7H76.5V68.7l12.4-8.1V41.2h29.6l16.3-10.7L151 41.2h29.1v19.3L192.5 68.7zM180.1 76.4l7.7-6.5 -7.7-5.1V76.4zM124.9 41.2h19.7l-9.8-6.5L124.9 41.2zM92.4 79.1L113.9 97l21 17.5 0 0 41.6-35.4V62.4v-4.2V44.7h-20.3 -6.4 -30.4 -6.4H92.4v13.6 4.2V79.1zM81.2 69.9l7.7 6.4V64.8L81.2 69.9zM188.9 73.5l-53.9 45.6 0 0 -23.3-19.4L80.1 73.4V136h108.9L188.9 73.5 188.9 73.5zM134.2 95.9c-9.1 0-16.8-6.7-16.8-17.3 0-11.4 7.9-21.3 20.3-21.3 9.7 0 16.2 6.8 16.2 16 0 8.3-4.7 13.2-9.9 13.2 -2.2 0-4.3-1.5-4.1-4.9h-0.2c-1.9 3.3-4.5 4.9-7.8 4.9 -3.2 0-6-2.6-6-7 0-6.9 5.4-13.2 13.2-13.2 2.4 0 4.5 0.5 5.9 1.2l-1.9 10c-0.8 4.2-0.2 6.2 1.7 6.2 2.8 0.1 6-3.7 6-10.2 0-8-4.8-13.8-13.4-13.8 -9 0-16.7 7.2-16.7 18.4 0 9.3 6 15 14.3 15 3.2 0 6.1-0.7 8.4-1.9l0.9 2.4C141.1 95.2 138 95.9 134.2 95.9zM141.1 69.7c-0.6-0.2-1.5-0.4-2.8-0.4 -4.9 0-8.8 4.6-8.8 10 0 2.4 1.2 4.2 3.7 4.2 3.2 0 6.2-4.1 6.8-7.5L141.1 69.7z"/>
  </g>
</svg>
