<?xml version="1.0" encoding="utf-8"?>
<!-- Generator: Adobe Illustrator 19.1.0, SVG Export Plug-In . SVG Version: 6.00 Build 0)  -->
<svg version="1.1" id="Layer_1" xmlns="http://www.w3.org/2000/svg" xmlns:xlink="http://www.w3.org/1999/xlink" x="0px" y="0px"
	 viewBox="0 0 92 73" style="enable-background:new 0 0 92 73;" xml:space="preserve">
<style type="text/css">
	.st0{fill:#51B967;}
	.st1{fill:#FFFFFF;}
	.st2{opacity:0.8;}
	.st3{opacity:0.7;fill:#E6E6E6;}
	.st4{fill:none;stroke:#D57C1C;stroke-width:0.8165;stroke-miterlimit:10;}
	.st5{fill:none;stroke:#414042;stroke-width:0.8165;stroke-miterlimit:10;}
	.st6{fill:none;stroke:#F68E21;stroke-width:0.8165;stroke-miterlimit:10;}
	.st7{fill:none;stroke:#895E3C;stroke-width:0.8165;stroke-miterlimit:10;}
	.st8{fill:#FFFFFF;stroke:#99D7DE;stroke-width:0.8165;stroke-miterlimit:10;}
	.st9{opacity:0.15;fill:#FFFFFF;}
	.st10{fill:none;stroke:#99D7DE;stroke-width:0.8165;stroke-miterlimit:10;}
	.st11{fill:#FFFFFF;stroke:#414042;stroke-width:0.8165;stroke-miterlimit:10;}
	.st12{fill:#414042;}
	.st13{font-family:'Articulate-Bold';}
	.st14{font-size:3.9011px;}
</style>
<g>
	<circle class="st0" cx="1241.1" cy="2006.6" r="18"/>
	<path class="st1" d="M1251.5,1999.2c-0.6-0.6-1.5-0.6-2.1,0l-11.7,11.7l-5-5c-0.6-0.6-1.5-0.6-2.1,0c-0.6,0.6-0.6,1.5,0,2.1l6,6
		c0.3,0.3,0.7,0.4,1,0.4c0.4,0,0.7-0.1,1-0.4l12.7-12.7C1252.1,2000.7,1252.1,1999.8,1251.5,1999.2z"/>
</g>
<g class="st2">
	<path class="st3" d="M46.4,12L46.4,12L46.4,12c0-3.5-3.6-6.3-8-6.3c-1,0-1.9,0.1-2.7,0.4c-0.4-3.2-3.8-5.6-8-5.6
		c-4.2,0-7.7,2.5-8,5.8c-1-0.3-2-0.5-3.2-0.5c-4.4,0-8,2.8-8,6.3c-4.4,0-8,2.8-8,6.3c0,3.5,3.6,6.3,8,6.3c1.8,0,3.4-0.4,4.7-1.2
		c0.5,3.1,3.9,5.4,7.9,5.4c3.7,0,6.9-2,7.8-4.7c1.4,1.8,3.9,2.9,6.8,2.9c3,0,5.6-1.3,7-3.2c1.1,0.5,2.4,0.7,3.7,0.7
		c4.4,0,8-2.8,8-6.3C54.4,14.8,50.8,12,46.4,12z"/>
	<g>
		<rect x="11.9" y="54.1" class="st4" width="74.5" height="18.4"/>
		<polygon class="st5" points="10.5,45.4 88.1,45.4 91.6,54.6 6.8,54.6 		"/>
		<rect x="33.2" y="34.7" class="st6" width="31.9" height="37.8"/>
		<rect x="39.8" y="52" class="st7" width="18.7" height="20.5"/>
		<rect x="40.8" y="53.1" class="st8" width="16.7" height="19.4"/>
		<polygon class="st9" points="47.5,53.1 40.8,53.1 40.8,57.1 53.7,72.5 57.5,72.5 57.5,65 		"/>
		<rect x="48.8" y="52" class="st7" width="0.8" height="20.5"/>
		<rect x="15.5" y="58.5" class="st7" width="15" height="9.6"/>
		<rect x="16" y="59" class="st10" width="13.9" height="8.6"/>
		<polygon class="st9" points="25.5,59 22.5,59 20.8,59 28.1,67.6 30,67.6 30,64.2 		"/>
		<polygon class="st9" points="19.4,59 16.7,59 24,67.6 26.8,67.6 		"/>
		<g>
			<g>
				<rect x="20.2" y="58.5" class="st7" width="0.4" height="9.6"/>
				<rect x="25.7" y="58.5" class="st7" width="0.4" height="9.6"/>
			</g>
			<rect x="15.5" y="63.1" class="st7" width="15" height="0.4"/>
		</g>
		<rect x="68.2" y="58.5" class="st7" width="15" height="9.6"/>
		<rect x="68.8" y="59" class="st10" width="13.9" height="8.6"/>
		<polygon class="st9" points="78.3,59 75.2,59 73.6,59 80.9,67.6 82.7,67.6 82.7,64.2 		"/>
		<polygon class="st9" points="72.1,59 69.4,59 76.7,67.6 79.6,67.6 		"/>
		<g>
			<g>
				<rect x="73" y="58.5" class="st7" width="0.4" height="9.6"/>
				<rect x="78.5" y="58.5" class="st7" width="0.4" height="9.6"/>
			</g>
			<rect x="68.2" y="63.1" class="st7" width="15" height="0.4"/>
		</g>
		<polygon class="st6" points="65.1,48.3 33.3,48.3 33.3,29.5 48.7,18.1 65.1,29.5 		"/>
		<path class="st11" d="M49.2,28c-3.6,0-6.6,3-6.6,6.6s3,6.6,6.6,6.6c3.6,0,6.6-3,6.6-6.6C55.8,30.9,52.8,28,49.2,28z"/>
		<polygon class="st5" points="30.2,34.6 27.4,29.8 48.7,14.7 69.8,28.8 67.3,33.7 48.8,21.5 		"/>
		<g>
			<g>
				<path class="st12" d="M52.4,32.6l-2.8,1.6c-0.1-0.1-0.3-0.1-0.4-0.1c-0.2,0-0.3,0-0.4,0.1L46,32.6c-0.3-0.1-0.6-0.1-0.7,0.2
					c-0.1,0.3-0.1,0.6,0.2,0.7l2.9,1.6c0.1,0.4,0.5,0.7,0.9,0.7c0.4,0,0.8-0.3,0.9-0.7l2.9-1.6c0.3-0.1,0.4-0.5,0.2-0.7
					C53,32.5,52.7,32.5,52.4,32.6z"/>
			</g>
		</g>
		<rect x="37.6" y="44.2" class="st11" width="23.1" height="6.6"/>
		<text transform="matrix(1 0 0 1 41.5081 48.6755)" class="st12 st13 st14">SCHOOL</text>
	</g>
</g>
</svg>
