<?xml version="1.0" encoding="utf-8"?>
<!-- Generator: Adobe Illustrator 19.1.0, SVG Export Plug-In . SVG Version: 6.00 Build 0)  -->
<svg version="1.1" id="Layer_1" xmlns="http://www.w3.org/2000/svg" xmlns:xlink="http://www.w3.org/1999/xlink" x="0px" y="0px"
	 viewBox="0 0 92 91.2" style="enable-background:new 0 0 92 91.2;" xml:space="preserve">
<style type="text/css">
	.st0{fill:#51B967;}
	.st1{fill:#FFFFFF;}
	.st2{opacity:0.7;fill:#E6E6E6;}
	.st3{fill:none;stroke:#D57C1C;stroke-width:0.8165;stroke-miterlimit:10;}
	.st4{fill:none;stroke:#F68E21;stroke-width:0.8165;stroke-miterlimit:10;}
	.st5{fill:#FFFFFF;stroke:#414042;stroke-width:0.8165;stroke-miterlimit:10;}
	.st6{fill:none;stroke:#414042;stroke-width:0.8165;stroke-miterlimit:10;}
	.st7{fill:#414042;}
	.st8{fill:none;stroke:#895E3C;stroke-width:0.8165;stroke-miterlimit:10;}
	.st9{fill:#FFFFFF;stroke:#99D7DE;stroke-width:0.8165;stroke-miterlimit:10;}
	.st10{opacity:0.15;fill:#FFFFFF;}
	.st11{fill:none;stroke:#99D7DE;stroke-width:0.8165;stroke-miterlimit:10;}
	.st12{font-family:'Articulate-Bold';}
	.st13{font-size:3.9011px;}
</style>
<g>
	<circle class="st0" cx="1241.1" cy="2015.4" r="18"/>
	<path class="st1" d="M1251.5,2008c-0.6-0.6-1.5-0.6-2.1,0l-11.7,11.7l-5-5c-0.6-0.6-1.5-0.6-2.1,0c-0.6,0.6-0.6,1.5,0,2.1l6,6
		c0.3,0.3,0.7,0.4,1,0.4c0.4,0,0.7-0.1,1-0.4l12.7-12.7C1252.1,2009.5,1252.1,2008.6,1251.5,2008z"/>
</g>
<g>
	<path class="st2" d="M50,12.3L50,12.3L50,12.3c0-3.7-3.8-6.7-8.5-6.7c-1,0-2,0.1-2.9,0.4c-0.4-3.4-4.1-6-8.5-6
		c-4.5,0-8.1,2.7-8.5,6.1c-1-0.3-2.2-0.5-3.4-0.5c-4.7,0-8.5,3-8.5,6.7c-4.7,0-8.5,3-8.5,6.7c0,3.7,3.8,6.7,8.5,6.7
		c1.9,0,3.6-0.5,5-1.3c0.6,3.3,4.1,5.8,8.5,5.8c4,0,7.3-2.1,8.3-5c1.5,1.9,4.2,3.1,7.2,3.1c3.2,0,5.9-1.4,7.4-3.4
		c1.2,0.5,2.5,0.8,4,0.8c4.7,0,8.5-3,8.5-6.7C58.5,15.3,54.7,12.3,50,12.3z"/>
	<rect x="11.3" y="45" class="st3" width="74.5" height="18.4"/>
	<polygon class="st4" points="62.3,36.3 34.9,36.3 34.9,20 48.2,10.2 62.3,20 	"/>
	<rect x="34.9" y="24.9" class="st4" width="27.5" height="11.4"/>
	<path class="st5" d="M48.6,18.7c-3.1,0-5.7,2.6-5.7,5.7s2.6,5.7,5.7,5.7c3.1,0,5.7-2.6,5.7-5.7C54.3,21.3,51.7,18.7,48.6,18.7z"/>
	<polygon class="st6" points="32.2,24.4 29.8,20.3 48.2,7.3 66.4,19.5 64.2,23.7 48.2,13.2 	"/>
	<g>
		<g>
			<path class="st7" d="M51.4,22.7L49,24.1C48.9,24,48.7,24,48.6,24c-0.1,0-0.3,0-0.4,0.1l-2.4-1.3c-0.2-0.1-0.5,0-0.6,0.2
				c-0.1,0.2,0,0.5,0.2,0.6l2.5,1.4c0.1,0.4,0.4,0.6,0.8,0.6c0.4,0,0.7-0.3,0.8-0.6l2.5-1.4c0.2-0.1,0.3-0.4,0.2-0.6
				C51.9,22.7,51.6,22.6,51.4,22.7z"/>
		</g>
	</g>
	<rect x="11.3" y="72.1" class="st3" width="74.5" height="18.4"/>
	<polygon class="st6" points="9.8,63.4 87.4,63.4 90.9,72.6 6.1,72.6 	"/>
	<rect x="32.6" y="45" class="st4" width="31.9" height="45.5"/>
	<rect x="32.6" y="65.5" class="st4" width="31.9" height="25.1"/>
	<rect x="39.1" y="70" class="st8" width="18.7" height="20.5"/>
	<rect x="40.2" y="71.1" class="st9" width="16.7" height="19.4"/>
	<polygon class="st10" points="46.8,71.1 40.2,71.1 40.2,75.1 53.1,90.6 56.9,90.6 56.9,83 	"/>
	<rect x="48.1" y="70" class="st8" width="0.8" height="20.5"/>
	<rect x="14.8" y="76.5" class="st8" width="15" height="9.6"/>
	<rect x="15.4" y="77" class="st11" width="13.9" height="8.6"/>
	<polygon class="st10" points="24.8,77 21.8,77 20.2,77 27.4,85.6 29.3,85.6 29.3,82.3 	"/>
	<polygon class="st10" points="18.7,77 16,77 23.3,85.6 26.2,85.6 	"/>
	<g>
		<g>
			<rect x="19.5" y="76.5" class="st8" width="0.4" height="9.6"/>
			<rect x="25" y="76.5" class="st8" width="0.4" height="9.6"/>
		</g>
		<rect x="14.8" y="81.1" class="st8" width="15" height="0.4"/>
	</g>
	<rect x="67.6" y="76.5" class="st8" width="15" height="9.6"/>
	<rect x="68.1" y="77" class="st11" width="13.9" height="8.6"/>
	<polygon class="st10" points="77.6,77 74.6,77 72.9,77 80.2,85.6 82.1,85.6 82.1,82.3 	"/>
	<polygon class="st10" points="71.5,77 68.8,77 76.1,85.6 78.9,85.6 	"/>
	<g>
		<g>
			<rect x="72.3" y="76.5" class="st8" width="0.4" height="9.6"/>
			<rect x="77.8" y="76.5" class="st8" width="0.4" height="9.6"/>
		</g>
		<rect x="67.5" y="81.1" class="st8" width="15" height="0.4"/>
	</g>
	<polygon class="st6" points="9.8,36.3 87.4,36.3 90.9,45.5 6.1,45.5 	"/>
	<rect x="14.5" y="49.4" class="st8" width="15" height="9.6"/>
	<rect x="15.1" y="49.9" class="st11" width="13.9" height="8.6"/>
	<polygon class="st10" points="24.6,49.9 21.5,49.9 19.9,49.9 27.2,58.5 29,58.5 29,55.2 	"/>
	<polygon class="st10" points="18.5,49.9 15.7,49.9 23,58.5 25.9,58.5 	"/>
	<g>
		<g>
			<rect x="19.3" y="49.4" class="st8" width="0.4" height="9.6"/>
			<rect x="24.8" y="49.4" class="st8" width="0.4" height="9.6"/>
		</g>
		<rect x="14.5" y="54" class="st8" width="15" height="0.4"/>
	</g>
	<rect x="67.6" y="49.4" class="st8" width="15" height="9.6"/>
	<rect x="68.1" y="49.9" class="st11" width="13.9" height="8.6"/>
	<polygon class="st10" points="77.6,49.9 74.6,49.9 72.9,49.9 80.2,58.5 82.1,58.5 82.1,55.2 	"/>
	<polygon class="st10" points="71.5,49.9 68.8,49.9 76.1,58.5 78.9,58.5 	"/>
	<g>
		<g>
			<rect x="72.3" y="49.5" class="st8" width="0.4" height="9.6"/>
			<rect x="77.8" y="49.5" class="st8" width="0.4" height="9.6"/>
		</g>
		<rect x="67.5" y="54" class="st8" width="15" height="0.4"/>
	</g>
	<rect x="40.6" y="49.2" class="st8" width="15" height="9.6"/>
	<rect x="41.2" y="49.7" class="st11" width="13.9" height="8.6"/>
	<polygon class="st10" points="50.7,49.7 47.6,49.7 46,49.7 53.3,58.3 55.1,58.3 55.1,55 	"/>
	<polygon class="st10" points="44.6,49.7 41.8,49.7 49.1,58.3 52,58.3 	"/>
	<g>
		<g>
			<rect x="45.4" y="49.2" class="st8" width="0.4" height="9.6"/>
			<rect x="50.9" y="49.2" class="st8" width="0.4" height="9.6"/>
		</g>
		<rect x="40.6" y="53.8" class="st8" width="15" height="0.4"/>
	</g>
	<rect x="37" y="62.2" class="st5" width="23.1" height="6.6"/>
	<text transform="matrix(1 0 0 1 40.2952 66.9008)" class="st7 st12 st13">COLLEGE</text>
</g>
</svg>
