<?xml version="1.0" encoding="utf-8"?>
<!-- Generator: Adobe Illustrator 19.1.0, SVG Export Plug-In . SVG Version: 6.00 Build 0)  -->
<svg version="1.1" id="Layer_1" xmlns="http://www.w3.org/2000/svg" xmlns:xlink="http://www.w3.org/1999/xlink" x="0px" y="0px"
	 viewBox="0 0 109.7 95.9" style="enable-background:new 0 0 109.7 95.9;" xml:space="preserve">
<style type="text/css">
	.st0{fill:#51B967;}
	.st1{fill:#FFFFFF;}
	.st2{opacity:0.7;fill:#E6E6E6;}
	.st3{fill:none;stroke:#D57C1C;stroke-width:0.8165;stroke-miterlimit:10;}
	.st4{fill:none;stroke:#F68E21;stroke-width:0.8165;stroke-miterlimit:10;}
	.st5{fill:#FFFFFF;stroke:#414042;stroke-width:0.8165;stroke-miterlimit:10;}
	.st6{fill:none;stroke:#414042;stroke-width:0.8165;stroke-miterlimit:10;}
	.st7{fill:#414042;}
	.st8{fill:none;stroke:#895E3C;stroke-width:0.8165;stroke-miterlimit:10;}
	.st9{fill:#FFFFFF;stroke:#99D7DE;stroke-width:0.8165;stroke-miterlimit:10;}
	.st10{opacity:0.15;fill:#FFFFFF;}
	.st11{fill:none;stroke:#99D7DE;stroke-width:0.8165;stroke-miterlimit:10;}
	.st12{opacity:0.8;}
	.st13{fill:#895E3C;}
	.st14{fill:none;stroke:#F68E21;stroke-width:0.6827;stroke-miterlimit:10;}
	.st15{fill:none;stroke:#99D7DE;stroke-width:0.4708;stroke-miterlimit:10;}
	.st16{fill:none;stroke:#895E3C;stroke-width:0.4899;stroke-miterlimit:10;}
	.st17{fill:#895E3C;stroke:#895E3C;stroke-width:0.4899;stroke-miterlimit:10;}
	.st18{fill:none;stroke:#F68E21;stroke-width:0.8136;stroke-miterlimit:10;}
	.st19{fill:none;stroke:#99D7DE;stroke-width:0.4899;stroke-miterlimit:10;}
	.st20{font-family:'Articulate-Bold';}
	.st21{font-size:3.9249px;}
	.st22{fill:none;stroke:#414042;stroke-width:0.8277;stroke-miterlimit:10;}
	.st23{fill:none;stroke:#414042;stroke-width:0.828;stroke-miterlimit:10;}
	.st24{fill:none;stroke:#D57C1C;stroke-miterlimit:10;}
	.st25{fill:none;stroke:#414042;stroke-miterlimit:10;}
	.st26{fill:none;stroke:#F68E21;stroke-width:0.6514;stroke-miterlimit:10;}
</style>
<g>
	<circle class="st0" cx="1248.9" cy="2016.5" r="18"/>
	<path class="st1" d="M1259.3,2009.1c-0.6-0.6-1.5-0.6-2.1,0l-11.7,11.7l-5-5c-0.6-0.6-1.5-0.6-2.1,0c-0.6,0.6-0.6,1.5,0,2.1l6,6
		c0.3,0.3,0.7,0.4,1,0.4c0.4,0,0.7-0.1,1-0.4l12.7-12.7C1259.9,2010.6,1259.9,2009.7,1259.3,2009.1z"/>
</g>
<g>
	<path class="st2" d="M701.2-397L701.2-397L701.2-397c0-3.7-3.8-6.7-8.5-6.7c-1,0-2,0.1-2.9,0.4c-0.4-3.4-4.1-6-8.5-6
		c-4.5,0-8.1,2.7-8.5,6.1c-1-0.3-2.2-0.5-3.4-0.5c-4.7,0-8.5,3-8.5,6.7c-4.7,0-8.5,3-8.5,6.7c0,3.7,3.8,6.7,8.5,6.7
		c1.9,0,3.6-0.5,5-1.3c0.6,3.3,4.1,5.8,8.5,5.8c4,0,7.3-2.1,8.3-5c1.5,1.9,4.2,3.1,7.2,3.1c3.2,0,5.9-1.4,7.4-3.4
		c1.2,0.5,2.5,0.8,4,0.8c4.7,0,8.5-3,8.5-6.7C709.8-394,705.9-397,701.2-397z"/>
	<rect x="662.5" y="-364.2" class="st3" width="74.5" height="18.4"/>
	<polygon class="st4" points="713.6,-372.9 686.1,-372.9 686.1,-389.2 699.5,-399 713.6,-389.2 	"/>
	<rect x="686.1" y="-384.3" class="st4" width="27.5" height="11.4"/>
	<path class="st5" d="M699.9-390.5c-3.1,0-5.7,2.6-5.7,5.7s2.6,5.7,5.7,5.7c3.1,0,5.7-2.6,5.7-5.7
		C705.6-387.9,703-390.5,699.9-390.5z"/>
	<polygon class="st6" points="683.4,-384.8 681.1,-389 699.4,-402 717.7,-389.8 715.4,-385.5 699.5,-396 	"/>
	<g>
		<g>
			<path class="st7" d="M702.6-386.5l-2.4,1.3c-0.1-0.1-0.2-0.1-0.4-0.1c-0.1,0-0.3,0-0.4,0.1l-2.4-1.3c-0.2-0.1-0.5,0-0.6,0.2
				c-0.1,0.2,0,0.5,0.2,0.6l2.5,1.4c0.1,0.4,0.4,0.6,0.8,0.6c0.4,0,0.7-0.3,0.8-0.6l2.5-1.4c0.2-0.1,0.3-0.4,0.2-0.6
				C703.2-386.5,702.9-386.6,702.6-386.5z"/>
		</g>
	</g>
	<rect x="662.5" y="-337.1" class="st3" width="74.5" height="18.4"/>
	<polygon class="st6" points="661.1,-345.8 738.6,-345.8 742.2,-336.6 657.4,-336.6 	"/>
	<rect x="683.8" y="-364.2" class="st4" width="31.9" height="45.5"/>
	<rect x="683.8" y="-343.8" class="st4" width="31.9" height="25.1"/>
	<rect x="690.4" y="-339.2" class="st8" width="18.7" height="20.5"/>
	<rect x="691.4" y="-338.1" class="st9" width="16.7" height="19.4"/>
	<polygon class="st10" points="698,-338.1 691.4,-338.1 691.4,-334.1 704.3,-318.7 708.1,-318.7 708.1,-326.2 	"/>
	<rect x="699.4" y="-339.2" class="st8" width="0.8" height="20.5"/>
	<rect x="666" y="-332.8" class="st8" width="15" height="9.6"/>
	<rect x="666.6" y="-332.2" class="st11" width="13.9" height="8.6"/>
	<polygon class="st10" points="676.1,-332.2 673,-332.2 671.4,-332.2 678.7,-323.6 680.6,-323.6 680.6,-327 	"/>
	<polygon class="st10" points="670,-332.2 667.3,-332.2 674.5,-323.6 677.4,-323.6 	"/>
	<g>
		<g>
			<rect x="670.8" y="-332.8" class="st8" width="0.4" height="9.6"/>
			<rect x="676.3" y="-332.8" class="st8" width="0.4" height="9.6"/>
		</g>
		<rect x="666" y="-328.1" class="st8" width="15" height="0.4"/>
	</g>
	<rect x="718.8" y="-332.8" class="st8" width="15" height="9.6"/>
	<rect x="719.4" y="-332.2" class="st11" width="13.9" height="8.6"/>
	<polygon class="st10" points="728.9,-332.2 725.8,-332.2 724.2,-332.2 731.5,-323.6 733.3,-323.6 733.3,-327 	"/>
	<polygon class="st10" points="722.7,-332.2 720,-332.2 727.3,-323.6 730.2,-323.6 	"/>
	<g>
		<g>
			<rect x="723.5" y="-332.8" class="st8" width="0.4" height="9.6"/>
			<rect x="729.1" y="-332.8" class="st8" width="0.4" height="9.6"/>
		</g>
		<rect x="718.8" y="-328.1" class="st8" width="15" height="0.4"/>
	</g>
	<polygon class="st6" points="661.1,-372.9 738.6,-372.9 742.2,-363.7 657.4,-363.7 	"/>
	<rect x="665.8" y="-359.8" class="st8" width="15" height="9.6"/>
	<rect x="666.4" y="-359.3" class="st11" width="13.9" height="8.6"/>
	<polygon class="st10" points="675.8,-359.3 672.8,-359.3 671.1,-359.3 678.4,-350.7 680.3,-350.7 680.3,-354.1 	"/>
	<polygon class="st10" points="669.7,-359.3 667,-359.3 674.3,-350.7 677.2,-350.7 	"/>
	<g>
		<g>
			<rect x="670.5" y="-359.8" class="st8" width="0.4" height="9.6"/>
			<rect x="676" y="-359.8" class="st8" width="0.4" height="9.6"/>
		</g>
		<rect x="665.8" y="-355.2" class="st8" width="15" height="0.4"/>
	</g>
	<rect x="718.8" y="-359.8" class="st8" width="15" height="9.6"/>
	<rect x="719.4" y="-359.3" class="st11" width="13.9" height="8.6"/>
	<polygon class="st10" points="728.9,-359.3 725.8,-359.3 724.2,-359.3 731.5,-350.7 733.3,-350.7 733.3,-354.1 	"/>
	<polygon class="st10" points="722.7,-359.3 720,-359.3 727.3,-350.7 730.2,-350.7 	"/>
	<g>
		<g>
			<rect x="723.5" y="-359.8" class="st8" width="0.4" height="9.6"/>
			<rect x="729.1" y="-359.8" class="st8" width="0.4" height="9.6"/>
		</g>
		<rect x="718.8" y="-355.2" class="st8" width="15" height="0.4"/>
	</g>
	<rect x="691.9" y="-360" class="st8" width="15" height="9.6"/>
	<rect x="692.5" y="-359.5" class="st11" width="13.9" height="8.6"/>
	<polygon class="st10" points="701.9,-359.5 698.9,-359.5 697.2,-359.5 704.5,-350.9 706.4,-350.9 706.4,-354.3 	"/>
	<polygon class="st10" points="695.8,-359.5 693.1,-359.5 700.4,-350.9 703.3,-350.9 	"/>
	<g>
		<g>
			<rect x="696.6" y="-360" class="st8" width="0.4" height="9.6"/>
			<rect x="702.1" y="-360" class="st8" width="0.4" height="9.6"/>
		</g>
		<rect x="691.9" y="-355.4" class="st8" width="15" height="0.4"/>
	</g>
	<rect x="688.2" y="-347" class="st5" width="23.1" height="6.6"/>
	<text transform="matrix(1 0 0 1 691.55 -342.3398)" class="st7 st20" style="font-size:3.9011px;">COLLEGE</text>
</g>
<g class="st12">
	<rect x="84.2" y="90.3" class="st13" width="0.4" height="0"/>
	<path class="st2" d="M54.1,13.4L54.1,13.4L54.1,13.4c0-3.7-3.8-6.7-8.5-6.7c-1,0-2,0.1-2.9,0.4c-0.4-3.4-4.1-6-8.5-6
		c-4.5,0-8.1,2.7-8.5,6.1c-1-0.3-2.2-0.5-3.4-0.5c-4.7,0-8.5,3-8.5,6.7c-4.7,0-8.5,3-8.5,6.7c0,3.7,3.8,6.7,8.5,6.7
		c1.9,0,3.6-0.5,5-1.3c0.6,3.3,4.1,5.8,8.5,5.8c4,0,7.3-2.1,8.3-5c1.5,1.9,4.2,3.1,7.2,3.1c3.2,0,5.9-1.4,7.4-3.4
		c1.2,0.5,2.5,0.8,4,0.8c4.7,0,8.5-3,8.5-6.7C62.7,16.4,58.8,13.4,54.1,13.4z"/>
	<polygon class="st10" points="50.9,54.2 48.2,54.2 55.5,62.8 58.4,62.8 	"/>
	<rect x="5.5" y="76.2" class="st3" width="98.8" height="18.5"/>
	<polygon class="st4" points="69.1,40.8 41.7,40.8 41.7,24.5 55,14.7 69.1,24.5 	"/>
	<rect x="41.7" y="29.4" class="st14" width="27.5" height="11.4"/>
	<path class="st5" d="M55.4,23.2c-3.1,0-5.7,2.6-5.7,5.7s2.6,5.7,5.7,5.7c3.1,0,5.7-2.6,5.7-5.7C61.1,25.7,58.6,23.2,55.4,23.2z"/>
	<polygon class="st6" points="39,28.9 36.6,24.7 55,11.7 73.2,23.9 71,28.1 55.1,17.6 	"/>
	<g>
		<g>
			<path class="st7" d="M58.2,27.2l-2.4,1.3c-0.1-0.1-0.2-0.1-0.4-0.1c-0.1,0-0.3,0-0.4,0.1l-2.4-1.3c-0.2-0.1-0.5,0-0.6,0.2
				c-0.1,0.2,0,0.5,0.2,0.6l2.5,1.4c0.1,0.4,0.4,0.6,0.8,0.6c0.4,0,0.7-0.3,0.8-0.6l2.5-1.4c0.2-0.1,0.3-0.4,0.2-0.6
				C58.7,27.1,58.4,27,58.2,27.2z"/>
		</g>
	</g>
	<polygon class="st6" points="5.8,67.5 104.2,67.5 108.6,76.7 1.1,76.7 	"/>
	<rect x="38.8" y="50" class="st4" width="32.1" height="44.8"/>
	<polygon class="st10" points="53.1,75.2 46.5,75.2 46.5,79.2 59.5,94.8 63.3,94.8 63.3,87.2 	"/>
	<g>
		<polygon class="st15" points="75.9,81.4 75.9,85.3 75.9,85.7 75.9,89.6 84.9,89.6 84.9,88.1 84.9,86.5 84.9,85.7 84.9,85.3 
			84.9,81.5 84.9,81.4 		"/>
		<polygon class="st16" points="75.4,81 75.4,90 84.9,90 84.9,90 85.4,90 85.4,89.5 85.4,88.6 85.4,87.2 85.4,85.7 85.4,85.3 
			85.4,82 85.4,81.5 85.4,81 		"/>
		<rect x="75.4" y="85.3" class="st17" width="10" height="0.4"/>
		<rect x="80.2" y="81" class="st17" width="0.4" height="9"/>
	</g>
	<g>
		<polygon class="st15" points="89.4,81.4 89.4,85.3 89.4,85.7 89.4,89.6 98.5,89.6 98.5,88.1 98.5,86.5 98.5,85.7 98.5,85.3 
			98.5,81.5 98.5,81.4 		"/>
		<polygon class="st16" points="89,81 89,90 98.4,90 98.4,90 98.9,90 98.9,89.5 98.9,88.6 98.9,87.2 98.9,85.7 98.9,85.3 98.9,82 
			98.9,81.5 98.9,81 		"/>
		<rect x="89" y="85.3" class="st17" width="10" height="0.4"/>
		<rect x="93.8" y="81" class="st17" width="0.4" height="9"/>
	</g>
	<g>
		<polygon class="st15" points="75.9,54.9 75.9,58.8 75.9,59.2 75.9,63 84.9,63 84.9,61.6 84.9,60 84.9,59.2 84.9,58.8 84.9,55 
			84.9,54.9 		"/>
		<polygon class="st16" points="75.4,54.5 75.4,63.5 84.9,63.5 84.9,63.5 85.4,63.5 85.4,63 85.4,62.1 85.4,60.6 85.4,59.2 
			85.4,58.8 85.4,55.5 85.4,55 85.4,54.5 		"/>
		<rect x="75.4" y="58.8" class="st17" width="10" height="0.4"/>
		<rect x="80.2" y="54.5" class="st17" width="0.4" height="9"/>
	</g>
	<g>
		<polygon class="st15" points="89.4,54.9 89.4,58.8 89.4,59.2 89.4,63 98.5,63 98.5,61.6 98.5,60 98.5,59.2 98.5,58.8 98.5,55 
			98.5,54.9 		"/>
		<polygon class="st16" points="89,54.5 89,63.5 98.4,63.5 98.4,63.5 98.9,63.5 98.9,63 98.9,62.1 98.9,60.6 98.9,59.2 98.9,58.8 
			98.9,55.5 98.9,55 98.9,54.5 		"/>
		<rect x="89" y="58.8" class="st17" width="10" height="0.4"/>
		<rect x="93.8" y="54.5" class="st17" width="0.4" height="9"/>
	</g>
	<g>
		<polygon class="st15" points="10.9,54.9 10.9,58.8 10.9,59.2 10.9,63 20,63 20,61.6 20,60 20,59.2 20,58.8 20,55 20,54.9 		"/>
		<polygon class="st16" points="10.5,54.5 10.5,63.5 19.9,63.5 19.9,63.5 20.4,63.5 20.4,63 20.4,62.1 20.4,60.6 20.4,59.2 
			20.4,58.8 20.4,55.5 20.4,55 20.4,54.5 		"/>
		<rect x="10.5" y="58.8" class="st17" width="10" height="0.4"/>
		<rect x="15.3" y="54.5" class="st17" width="0.4" height="9"/>
	</g>
	<g>
		<polygon class="st15" points="24.5,54.9 24.5,58.8 24.5,59.2 24.5,63 33.5,63 33.5,61.6 33.5,60 33.5,59.2 33.5,58.8 33.5,55 
			33.5,54.9 		"/>
		<polygon class="st16" points="24,54.5 24,63.5 33.4,63.5 33.4,63.5 34,63.5 34,63 34,62.1 34,60.6 34,59.2 34,58.8 34,55.5 34,55 
			34,54.5 		"/>
		<rect x="24" y="58.8" class="st17" width="10" height="0.4"/>
		<rect x="28.8" y="54.5" class="st17" width="0.4" height="9"/>
	</g>
	<g>
		<polygon class="st15" points="10.9,81.4 10.9,85.3 10.9,85.7 10.9,89.6 20,89.6 20,88.1 20,86.5 20,85.7 20,85.3 20,81.5 20,81.4 
					"/>
		<polygon class="st16" points="10.5,81 10.5,90 19.9,90 19.9,90 20.4,90 20.4,89.5 20.4,88.6 20.4,87.2 20.4,85.7 20.4,85.3 
			20.4,82 20.4,81.5 20.4,81 		"/>
		<rect x="10.5" y="85.3" class="st17" width="10" height="0.4"/>
		<rect x="15.3" y="81" class="st17" width="0.4" height="9"/>
	</g>
	<g>
		<polygon class="st15" points="24.5,81.4 24.5,85.3 24.5,85.7 24.5,89.6 33.5,89.6 33.5,88.1 33.5,86.5 33.5,85.7 33.5,85.3 
			33.5,81.5 33.5,81.4 		"/>
		<polygon class="st16" points="24,81 24,90 33.4,90 33.4,90 34,90 34,89.5 34,88.6 34,87.2 34,85.7 34,85.3 34,82 34,81.5 34,81 		
			"/>
		<rect x="24" y="85.3" class="st17" width="10" height="0.4"/>
		<rect x="28.8" y="81" class="st17" width="0.4" height="9"/>
	</g>
	<rect x="5.5" y="49.5" class="st3" width="98.8" height="18.4"/>
	<rect x="38.9" y="49.6" class="st18" width="31.9" height="45.2"/>
	<rect x="47" y="53.7" class="st16" width="15" height="9.6"/>
	<rect x="47.6" y="54.2" class="st19" width="13.9" height="8.6"/>
	<polygon class="st10" points="57,54.2 54,54.2 52.4,54.2 59.6,62.8 61.5,62.8 61.5,59.4 	"/>
	<g>
		<g>
			<rect x="51.7" y="53.7" class="st16" width="0.4" height="9.6"/>
			<rect x="57.2" y="53.7" class="st16" width="0.4" height="9.6"/>
		</g>
		<rect x="47" y="58.3" class="st16" width="15" height="0.4"/>
	</g>
	<rect x="45.4" y="74.1" class="st8" width="18.8" height="20.7"/>
	<rect x="46.5" y="75.2" class="st9" width="16.8" height="19.6"/>
	<rect x="54.5" y="74.1" class="st16" width="0.8" height="20.7"/>
	<rect x="41.2" y="66.3" class="st5" width="27.4" height="6.6"/>
	<text transform="matrix(1 0 0 1 43.8684 70.991)" class="st7 st20 st21">UNIVERSITY</text>
	<polygon class="st6" points="5.8,40.8 104.2,40.8 108.6,50 1.1,50 	"/>
</g>
<g>
	<path class="st2" d="M1015.7-276.7L1015.7-276.7L1015.7-276.7c0-3.7-3.8-6.7-8.5-6.7c-1,0-2,0.1-2.9,0.4c-0.4-3.4-4.1-6-8.5-6
		c-4.5,0-8.1,2.7-8.5,6.1c-1-0.3-2.2-0.5-3.4-0.5c-4.7,0-8.5,3-8.5,6.7c-4.7,0-8.5,3-8.5,6.7c0,3.7,3.8,6.7,8.5,6.7
		c1.9,0,3.6-0.5,5-1.3c0.6,3.3,4.1,5.8,8.5,5.8c4,0,7.3-2.1,8.3-5c1.5,1.9,4.2,3.1,7.2,3.1c3.2,0,5.9-1.4,7.4-3.4
		c1.2,0.5,2.5,0.8,4,0.8c4.7,0,8.5-3,8.5-6.7S1020.4-276.7,1015.7-276.7z"/>
	<g>
		<rect x="1005.7" y="-228.9" class="st3" width="74.5" height="18.4"/>
		<rect x="1005.7" y="-201.8" class="st3" width="74.5" height="18.4"/>
		<polygon class="st6" points="1004.2,-210.5 1081.8,-210.5 1081.8,-201.3 1004.2,-201.3 		"/>
		<rect x="1027" y="-228.9" class="st4" width="31.9" height="45.5"/>
		<rect x="1027" y="-208.4" class="st4" width="31.9" height="25.1"/>
		<rect x="1033.5" y="-203.9" class="st8" width="18.7" height="20.5"/>
		<rect x="1034.5" y="-202.8" class="st9" width="16.7" height="19.4"/>
		<polygon class="st10" points="1041.2,-202.8 1034.5,-202.8 1034.5,-198.8 1047.5,-183.4 1051.3,-183.4 1051.3,-190.9 		"/>
		<rect x="1042.5" y="-203.9" class="st8" width="0.8" height="20.5"/>
		<rect x="1009.2" y="-197.5" class="st8" width="15" height="9.6"/>
		<rect x="1009.8" y="-196.9" class="st11" width="13.9" height="8.6"/>
		<polygon class="st10" points="1019.2,-196.9 1016.2,-196.9 1014.5,-196.9 1021.8,-188.3 1023.7,-188.3 1023.7,-191.7 		"/>
		<polygon class="st10" points="1013.1,-196.9 1010.4,-196.9 1017.7,-188.3 1020.6,-188.3 		"/>
		<g>
			<g>
				<rect x="1013.9" y="-197.5" class="st8" width="0.4" height="9.6"/>
				<rect x="1019.4" y="-197.5" class="st8" width="0.4" height="9.6"/>
			</g>
			<rect x="1009.2" y="-192.8" class="st8" width="15" height="0.4"/>
		</g>
		<rect x="1062" y="-197.5" class="st8" width="15" height="9.6"/>
		<rect x="1062.5" y="-196.9" class="st11" width="13.9" height="8.6"/>
		<polygon class="st10" points="1072,-196.9 1069,-196.9 1067.3,-196.9 1074.6,-188.3 1076.5,-188.3 1076.5,-191.7 		"/>
		<polygon class="st10" points="1065.9,-196.9 1063.2,-196.9 1070.5,-188.3 1073.3,-188.3 		"/>
		<g>
			<g>
				<rect x="1066.7" y="-197.5" class="st8" width="0.4" height="9.6"/>
				<rect x="1072.2" y="-197.5" class="st8" width="0.4" height="9.6"/>
			</g>
			<rect x="1061.9" y="-192.8" class="st8" width="15" height="0.4"/>
		</g>
		<polygon class="st6" points="1004.2,-237.6 1081.8,-237.6 1081.8,-228.3 1004.2,-228.4 		"/>
		<rect x="1008.9" y="-224.5" class="st8" width="15" height="9.6"/>
		<rect x="1009.5" y="-224" class="st11" width="13.9" height="8.6"/>
		<polygon class="st10" points="1019,-224 1015.9,-224 1014.3,-224 1021.6,-215.4 1023.4,-215.4 1023.4,-218.7 		"/>
		<polygon class="st10" points="1012.9,-224 1010.1,-224 1017.4,-215.4 1020.3,-215.4 		"/>
		<g>
			<g>
				<rect x="1013.6" y="-224.5" class="st8" width="0.4" height="9.6"/>
				<rect x="1019.2" y="-224.5" class="st8" width="0.4" height="9.6"/>
			</g>
			<rect x="1008.9" y="-219.9" class="st8" width="15" height="0.4"/>
		</g>
		<rect x="1062" y="-224.5" class="st8" width="15" height="9.6"/>
		<rect x="1062.5" y="-224" class="st11" width="13.9" height="8.6"/>
		<polygon class="st10" points="1072,-224 1069,-224 1067.3,-224 1074.6,-215.4 1076.5,-215.4 1076.5,-218.7 		"/>
		<polygon class="st10" points="1065.9,-224 1063.2,-224 1070.5,-215.4 1073.3,-215.4 		"/>
		<g>
			<g>
				<rect x="1066.7" y="-224.5" class="st8" width="0.4" height="9.6"/>
				<rect x="1072.2" y="-224.5" class="st8" width="0.4" height="9.6"/>
			</g>
			<rect x="1061.9" y="-219.9" class="st8" width="15" height="0.4"/>
		</g>
		<rect x="1035" y="-224.7" class="st8" width="15" height="9.6"/>
		<rect x="1035.6" y="-224.2" class="st11" width="13.9" height="8.6"/>
		<polygon class="st10" points="1045.1,-224.2 1042,-224.2 1040.4,-224.2 1047.7,-215.6 1049.5,-215.6 1049.5,-219 		"/>
		<polygon class="st10" points="1039,-224.2 1036.2,-224.2 1043.5,-215.6 1046.4,-215.6 		"/>
		<g>
			<g>
				<rect x="1039.7" y="-224.7" class="st8" width="0.4" height="9.6"/>
				<rect x="1045.3" y="-224.7" class="st8" width="0.4" height="9.6"/>
			</g>
			<rect x="1035" y="-220.1" class="st8" width="15" height="0.4"/>
		</g>
		<rect x="1005.7" y="-256" class="st3" width="74.5" height="18.4"/>
		<rect x="1027" y="-256" class="st4" width="31.9" height="45.5"/>
		<polygon class="st22" points="1004.2,-265 1081.8,-265 1081.8,-255.4 1004.2,-255.5 		"/>
		<rect x="1008.9" y="-251.6" class="st8" width="15" height="9.6"/>
		<rect x="1009.5" y="-251.1" class="st11" width="13.9" height="8.6"/>
		<polygon class="st10" points="1019,-251.1 1015.9,-251.1 1014.3,-251.1 1021.6,-242.5 1023.4,-242.5 1023.4,-245.9 		"/>
		<polygon class="st10" points="1012.9,-251.1 1010.1,-251.1 1017.4,-242.5 1020.3,-242.5 		"/>
		<g>
			<g>
				<rect x="1013.6" y="-251.6" class="st8" width="0.4" height="9.6"/>
				<rect x="1019.2" y="-251.6" class="st8" width="0.4" height="9.6"/>
			</g>
			<rect x="1008.9" y="-247" class="st8" width="15" height="0.4"/>
		</g>
		<rect x="1062" y="-251.6" class="st8" width="15" height="9.6"/>
		<rect x="1062.5" y="-251.1" class="st11" width="13.9" height="8.6"/>
		<polygon class="st10" points="1072,-251.1 1069,-251.1 1067.3,-251.1 1074.6,-242.5 1076.5,-242.5 1076.5,-245.9 		"/>
		<polygon class="st10" points="1065.9,-251.1 1063.2,-251.1 1070.5,-242.5 1073.3,-242.5 		"/>
		<g>
			<g>
				<rect x="1066.7" y="-251.6" class="st8" width="0.4" height="9.6"/>
				<rect x="1072.2" y="-251.6" class="st8" width="0.4" height="9.6"/>
			</g>
			<rect x="1061.9" y="-247" class="st8" width="15" height="0.4"/>
		</g>
		<rect x="1035" y="-251.9" class="st8" width="15" height="9.6"/>
		<rect x="1035.6" y="-251.3" class="st11" width="13.9" height="8.6"/>
		<polygon class="st10" points="1045.1,-251.3 1042,-251.3 1040.4,-251.3 1047.7,-242.7 1049.5,-242.7 1049.5,-246.1 		"/>
		<polygon class="st10" points="1039,-251.3 1036.2,-251.3 1043.5,-242.7 1046.4,-242.7 		"/>
		<g>
			<g>
				<rect x="1039.7" y="-251.9" class="st8" width="0.4" height="9.6"/>
				<rect x="1045.3" y="-251.9" class="st8" width="0.4" height="9.6"/>
			</g>
			<rect x="1035" y="-247.2" class="st8" width="15" height="0.4"/>
		</g>
		<rect x="1005.7" y="-283.2" class="st3" width="74.5" height="18.4"/>
		<rect x="1027" y="-283.2" class="st4" width="31.9" height="45.5"/>
		<polygon class="st23" points="1004.2,-287.4 1081.8,-287.4 1081.8,-282.7 1004.2,-282.7 		"/>
		<rect x="1008.9" y="-278.9" class="st8" width="15" height="9.6"/>
		<rect x="1009.5" y="-278.4" class="st11" width="13.9" height="8.6"/>
		<polygon class="st10" points="1019,-278.4 1015.9,-278.4 1014.3,-278.4 1021.6,-269.8 1023.4,-269.8 1023.4,-273.1 		"/>
		<polygon class="st10" points="1012.9,-278.4 1010.1,-278.4 1017.4,-269.8 1020.3,-269.8 		"/>
		<g>
			<g>
				<rect x="1013.6" y="-278.9" class="st8" width="0.4" height="9.6"/>
				<rect x="1019.2" y="-278.9" class="st8" width="0.4" height="9.6"/>
			</g>
			<rect x="1008.9" y="-274.3" class="st8" width="15" height="0.4"/>
		</g>
		<rect x="1062" y="-278.9" class="st8" width="15" height="9.6"/>
		<rect x="1062.5" y="-278.4" class="st11" width="13.9" height="8.6"/>
		<polygon class="st10" points="1072,-278.4 1069,-278.4 1067.3,-278.4 1074.6,-269.8 1076.5,-269.8 1076.5,-273.1 		"/>
		<polygon class="st10" points="1065.9,-278.4 1063.2,-278.4 1070.5,-269.8 1073.3,-269.8 		"/>
		<g>
			<g>
				<rect x="1066.7" y="-278.8" class="st8" width="0.4" height="9.6"/>
				<rect x="1072.2" y="-278.8" class="st8" width="0.4" height="9.6"/>
			</g>
			<rect x="1061.9" y="-274.3" class="st8" width="15" height="0.4"/>
		</g>
		<rect x="1035" y="-279.1" class="st8" width="15" height="9.6"/>
		<rect x="1035.6" y="-278.6" class="st11" width="13.9" height="8.6"/>
		<polygon class="st10" points="1045.1,-278.6 1042,-278.6 1040.4,-278.6 1047.7,-270 1049.5,-270 1049.5,-273.3 		"/>
		<polygon class="st10" points="1039,-278.6 1036.2,-278.6 1043.5,-270 1046.4,-270 		"/>
		<g>
			<g>
				<rect x="1039.7" y="-279.1" class="st8" width="0.4" height="9.6"/>
				<rect x="1045.3" y="-279.1" class="st8" width="0.4" height="9.6"/>
			</g>
			<rect x="1035" y="-274.5" class="st8" width="15" height="0.4"/>
		</g>
		<rect x="1031.4" y="-211.7" class="st5" width="23.1" height="6.6"/>
		<text transform="matrix(1 0 0 1 1034.6927 -207.0347)" class="st7 st20" style="font-size:3.9011px;">COLLEGE</text>
		<g>
			<path class="st5" d="M1043-265.9c-3.1,0-5.7,2.6-5.7,5.7s2.6,5.7,5.7,5.7s5.7-2.6,5.7-5.7C1048.7-263.3,1046.1-265.9,1043-265.9z
				"/>
			<g>
				<g>
					<path class="st7" d="M1045.8-261.9l-2.4,1.3c-0.1-0.1-0.2-0.1-0.4-0.1c-0.1,0-0.3,0-0.4,0.1l-2.4-1.3c-0.2-0.1-0.5,0-0.6,0.2
						c-0.1,0.2,0,0.5,0.2,0.6l2.5,1.4c0.1,0.4,0.4,0.6,0.8,0.6c0.4,0,0.7-0.3,0.8-0.6l2.5-1.4c0.2-0.1,0.3-0.4,0.2-0.6
						C1046.3-262,1046-262,1045.8-261.9z"/>
				</g>
			</g>
		</g>
	</g>
</g>
<g>
	<path class="st2" d="M688-476.5L688-476.5L688-476.5c0-3.5-3.6-6.3-8-6.3c-1,0-1.9,0.1-2.7,0.4c-0.4-3.2-3.8-5.6-8-5.6
		c-4.2,0-7.7,2.5-8,5.8c-1-0.3-2-0.5-3.2-0.5c-4.4,0-8,2.8-8,6.3c-4.4,0-8,2.8-8,6.3c0,3.5,3.6,6.3,8,6.3c1.8,0,3.4-0.4,4.7-1.2
		c0.5,3.1,3.9,5.4,7.9,5.4c3.7,0,6.9-2,7.8-4.7c1.4,1.8,3.9,2.9,6.8,2.9c3,0,5.6-1.3,7-3.2c1.1,0.5,2.4,0.7,3.7,0.7
		c4.4,0,8-2.8,8-6.3C696-473.7,692.5-476.5,688-476.5z"/>
	<rect x="665.5" y="-449.5" class="st24" width="50.7" height="18.4"/>
	<polygon class="st25" points="665.6,-458.2 716.2,-458.2 718.5,-449 663.2,-449 	"/>
	<rect x="674.9" y="-455.1" class="st26" width="31.9" height="24.1"/>
	<rect x="681.5" y="-451.6" class="st8" width="18.7" height="20.5"/>
	<rect x="682.5" y="-450.5" class="st9" width="16.7" height="19.4"/>
	<polygon class="st10" points="689.1,-450.5 682.5,-450.5 682.5,-446.5 695.4,-431.1 699.2,-431.1 699.2,-438.6 	"/>
	<rect x="690.4" y="-451.6" class="st8" width="0.8" height="20.5"/>
	<polygon class="st4" points="706.8,-434.9 674.9,-434.9 674.9,-462.5 690.4,-473.8 706.8,-462.5 	"/>
	<polygon class="st6" points="672.2,-458.2 669.5,-463 690.3,-477.4 711.5,-463.2 708.9,-458.3 690.4,-470.5 	"/>
	<rect x="679.3" y="-459.4" class="st5" width="23.1" height="6.6"/>
	<text transform="matrix(1 0 0 1 683.1537 -454.9006)" class="st7 st20" style="font-size:3.9011px;">SCHOOL</text>
</g>
<g class="st12">
	<path class="st2" d="M779.7-491.6L779.7-491.6L779.7-491.6c0-3.5-3.6-6.3-8-6.3c-1,0-1.9,0.1-2.7,0.4c-0.4-3.2-3.8-5.6-8-5.6
		c-4.2,0-7.7,2.5-8,5.8c-1-0.3-2-0.5-3.2-0.5c-4.4,0-8,2.8-8,6.3c-4.4,0-8,2.8-8,6.3c0,3.5,3.6,6.3,8,6.3c1.8,0,3.4-0.4,4.7-1.2
		c0.5,3.1,3.9,5.4,7.9,5.4c3.7,0,6.9-2,7.8-4.7c1.4,1.8,3.9,2.9,6.8,2.9c3,0,5.6-1.3,7-3.2c1.1,0.5,2.4,0.7,3.7,0.7
		c4.4,0,8-2.8,8-6.3C787.8-488.7,784.2-491.6,779.7-491.6z"/>
	<g>
		<rect x="745.3" y="-449.5" class="st3" width="74.5" height="18.4"/>
		<polygon class="st6" points="743.9,-458.2 821.4,-458.2 824.9,-449 740.1,-449 		"/>
		<rect x="766.6" y="-468.9" class="st4" width="31.9" height="37.8"/>
		<rect x="773.2" y="-451.6" class="st8" width="18.7" height="20.5"/>
		<rect x="774.2" y="-450.5" class="st9" width="16.7" height="19.4"/>
		<polygon class="st10" points="780.8,-450.5 774.2,-450.5 774.2,-446.5 787.1,-431.1 790.9,-431.1 790.9,-438.6 		"/>
		<rect x="782.2" y="-451.6" class="st8" width="0.8" height="20.5"/>
		<rect x="748.8" y="-445.1" class="st8" width="15" height="9.6"/>
		<rect x="749.4" y="-444.6" class="st11" width="13.9" height="8.6"/>
		<polygon class="st10" points="758.9,-444.6 755.8,-444.6 754.2,-444.6 761.5,-436 763.3,-436 763.3,-439.3 		"/>
		<polygon class="st10" points="752.7,-444.6 750,-444.6 757.3,-436 760.2,-436 		"/>
		<g>
			<g>
				<rect x="753.6" y="-445.1" class="st8" width="0.4" height="9.6"/>
				<rect x="759.1" y="-445.1" class="st8" width="0.4" height="9.6"/>
			</g>
			<rect x="748.8" y="-440.5" class="st8" width="15" height="0.4"/>
		</g>
		<rect x="801.6" y="-445.1" class="st8" width="15" height="9.6"/>
		<rect x="802.1" y="-444.6" class="st11" width="13.9" height="8.6"/>
		<polygon class="st10" points="811.6,-444.6 808.6,-444.6 806.9,-444.6 814.2,-436 816.1,-436 816.1,-439.3 		"/>
		<polygon class="st10" points="805.5,-444.6 802.8,-444.6 810.1,-436 812.9,-436 		"/>
		<g>
			<g>
				<rect x="806.3" y="-445.1" class="st8" width="0.4" height="9.6"/>
				<rect x="811.8" y="-445.1" class="st8" width="0.4" height="9.6"/>
			</g>
			<rect x="801.6" y="-440.5" class="st8" width="15" height="0.4"/>
		</g>
		<polygon class="st4" points="798.5,-455.2 766.6,-455.2 766.6,-474.1 782.1,-485.5 798.5,-474.1 		"/>
		<path class="st5" d="M782.6-475.6c-3.6,0-6.6,3-6.6,6.6c0,3.6,3,6.6,6.6,6.6s6.6-3,6.6-6.6C789.2-472.7,786.2-475.6,782.6-475.6z"
			/>
		<polygon class="st6" points="763.5,-469 760.8,-473.8 782,-488.9 803.2,-474.7 800.6,-469.8 782.1,-482 		"/>
		<g>
			<g>
				<path class="st7" d="M785.8-471l-2.8,1.6c-0.1-0.1-0.3-0.1-0.4-0.1c-0.2,0-0.3,0-0.4,0.1l-2.8-1.6c-0.3-0.1-0.6-0.1-0.7,0.2
					c-0.1,0.3-0.1,0.6,0.2,0.7l2.9,1.6c0.1,0.4,0.5,0.7,0.9,0.7c0.4,0,0.8-0.3,0.9-0.7l2.9-1.6c0.3-0.1,0.4-0.5,0.2-0.7
					C786.4-471,786.1-471.1,785.8-471z"/>
			</g>
		</g>
		<rect x="771" y="-459.4" class="st5" width="23.1" height="6.6"/>
		<text transform="matrix(1 0 0 1 774.8644 -454.9011)" class="st7 st20" style="font-size:3.9011px;">SCHOOL</text>
	</g>
</g>
<g>
	<path class="st2" d="M587.7-500.7L587.7-500.7L587.7-500.7c0-3.7-3.8-6.7-8.5-6.7c-1,0-2,0.1-2.9,0.4c-0.4-3.4-4.1-6-8.5-6
		c-4.5,0-8.1,2.7-8.5,6.1c-1-0.3-2.2-0.5-3.4-0.5c-4.7,0-8.5,3-8.5,6.7c-4.7,0-8.5,3-8.5,6.7c0,3.7,3.8,6.7,8.5,6.7
		c1.9,0,3.6-0.5,5-1.3c0.6,3.3,4.1,5.8,8.5,5.8c4,0,7.3-2.1,8.3-5c1.5,1.9,4.2,3.1,7.2,3.1c3.2,0,5.9-1.4,7.4-3.4
		c1.2,0.5,2.5,0.8,4,0.8c4.7,0,8.5-3,8.5-6.7C596.3-497.7,592.4-500.7,587.7-500.7z"/>
	<rect x="549" y="-467.9" class="st3" width="74.5" height="18.4"/>
	<polygon class="st4" points="600.1,-476.6 572.6,-476.6 572.6,-492.9 586,-502.7 600.1,-492.9 	"/>
	<rect x="572.6" y="-488" class="st4" width="27.5" height="11.4"/>
	<path class="st5" d="M586.4-494.2c-3.1,0-5.7,2.6-5.7,5.7s2.6,5.7,5.7,5.7c3.1,0,5.7-2.6,5.7-5.7
		C592.1-491.7,589.5-494.2,586.4-494.2z"/>
	<polygon class="st6" points="569.9,-488.5 567.6,-492.7 585.9,-505.7 604.2,-493.5 601.9,-489.2 586,-499.8 	"/>
	<g>
		<g>
			<path class="st7" d="M589.2-490.2l-2.4,1.3c-0.1-0.1-0.2-0.1-0.4-0.1c-0.1,0-0.3,0-0.4,0.1l-2.4-1.3c-0.2-0.1-0.5,0-0.6,0.2
				c-0.1,0.2,0,0.5,0.2,0.6l2.5,1.4c0.1,0.4,0.4,0.6,0.8,0.6c0.4,0,0.7-0.3,0.8-0.6l2.5-1.4c0.2-0.1,0.3-0.4,0.2-0.6
				C589.7-490.3,589.4-490.4,589.2-490.2z"/>
		</g>
	</g>
	<rect x="549" y="-440.9" class="st3" width="74.5" height="18.4"/>
	<polygon class="st6" points="547.6,-449.6 625.1,-449.6 628.7,-440.4 543.9,-440.4 	"/>
	<rect x="570.3" y="-467.9" class="st4" width="31.9" height="45.5"/>
	<rect x="570.3" y="-447.5" class="st4" width="31.9" height="25.1"/>
	<rect x="576.9" y="-443" class="st8" width="18.7" height="20.5"/>
	<rect x="577.9" y="-441.8" class="st9" width="16.7" height="19.4"/>
	<polygon class="st10" points="584.5,-441.8 577.9,-441.8 577.9,-437.9 590.8,-422.4 594.6,-422.4 594.6,-429.9 	"/>
	<rect x="585.9" y="-443" class="st8" width="0.8" height="20.5"/>
	<rect x="552.6" y="-436.5" class="st8" width="15" height="9.6"/>
	<rect x="553.1" y="-436" class="st11" width="13.9" height="8.6"/>
	<polygon class="st10" points="562.6,-436 559.5,-436 557.9,-436 565.2,-427.4 567.1,-427.4 567.1,-430.7 	"/>
	<polygon class="st10" points="556.5,-436 553.8,-436 561,-427.4 563.9,-427.4 	"/>
	<g>
		<g>
			<rect x="557.3" y="-436.5" class="st8" width="0.4" height="9.6"/>
			<rect x="562.8" y="-436.5" class="st8" width="0.4" height="9.6"/>
		</g>
		<rect x="552.5" y="-431.9" class="st8" width="15" height="0.4"/>
	</g>
	<rect x="605.3" y="-436.5" class="st8" width="15" height="9.6"/>
	<rect x="605.9" y="-436" class="st11" width="13.9" height="8.6"/>
	<polygon class="st10" points="615.4,-436 612.3,-436 610.7,-436 618,-427.4 619.8,-427.4 619.8,-430.7 	"/>
	<polygon class="st10" points="609.3,-436 606.5,-436 613.8,-427.4 616.7,-427.4 	"/>
	<g>
		<g>
			<rect x="610" y="-436.5" class="st8" width="0.4" height="9.6"/>
			<rect x="615.6" y="-436.5" class="st8" width="0.4" height="9.6"/>
		</g>
		<rect x="605.3" y="-431.9" class="st8" width="15" height="0.4"/>
	</g>
	<polygon class="st6" points="547.6,-476.6 625.1,-476.6 628.7,-467.4 543.9,-467.4 	"/>
	<rect x="552.3" y="-463.6" class="st8" width="15" height="9.6"/>
	<rect x="552.9" y="-463" class="st11" width="13.9" height="8.6"/>
	<polygon class="st10" points="562.3,-463 559.3,-463 557.7,-463 564.9,-454.4 566.8,-454.4 566.8,-457.8 	"/>
	<polygon class="st10" points="556.2,-463 553.5,-463 560.8,-454.4 563.7,-454.4 	"/>
	<g>
		<g>
			<rect x="557" y="-463.6" class="st8" width="0.4" height="9.6"/>
			<rect x="562.5" y="-463.6" class="st8" width="0.4" height="9.6"/>
		</g>
		<rect x="552.3" y="-458.9" class="st8" width="15" height="0.4"/>
	</g>
	<rect x="605.3" y="-463.6" class="st8" width="15" height="9.6"/>
	<rect x="605.9" y="-463" class="st11" width="13.9" height="8.6"/>
	<polygon class="st10" points="615.4,-463 612.3,-463 610.7,-463 618,-454.4 619.8,-454.4 619.8,-457.8 	"/>
	<polygon class="st10" points="609.3,-463 606.5,-463 613.8,-454.4 616.7,-454.4 	"/>
	<g>
		<g>
			<rect x="610" y="-463.5" class="st8" width="0.4" height="9.6"/>
			<rect x="615.6" y="-463.5" class="st8" width="0.4" height="9.6"/>
		</g>
		<rect x="605.3" y="-458.9" class="st8" width="15" height="0.4"/>
	</g>
	<rect x="578.4" y="-463.8" class="st8" width="15" height="9.6"/>
	<rect x="579" y="-463.3" class="st11" width="13.9" height="8.6"/>
	<polygon class="st10" points="588.4,-463.3 585.4,-463.3 583.8,-463.3 591,-454.6 592.9,-454.6 592.9,-458 	"/>
	<polygon class="st10" points="582.3,-463.3 579.6,-463.3 586.9,-454.6 589.8,-454.6 	"/>
	<g>
		<g>
			<rect x="583.1" y="-463.8" class="st8" width="0.4" height="9.6"/>
			<rect x="588.6" y="-463.8" class="st8" width="0.4" height="9.6"/>
		</g>
		<rect x="578.4" y="-459.2" class="st8" width="15" height="0.4"/>
	</g>
	<rect x="574.7" y="-450.8" class="st5" width="23.1" height="6.6"/>
	<text transform="matrix(1 0 0 1 578.0581 -446.0645)" class="st7 st20" style="font-size:3.9011px;">COLLEGE</text>
</g>
</svg>
