<?xml version="1.0" encoding="utf-8"?>
<!-- Generator: Adobe Illustrator 19.1.0, SVG Export Plug-In . SVG Version: 6.00 Build 0)  -->
<svg version="1.1" id="Layer_1" xmlns="http://www.w3.org/2000/svg" xmlns:xlink="http://www.w3.org/1999/xlink" x="0px" y="0px"
	 viewBox="0 0 10 7.3" style="enable-background:new 0 0 10 7.3;" xml:space="preserve">
<style type="text/css">
	.st0{fill:#51B967;}
	.st1{fill:#FFFFFF;}
	.st2{opacity:0.8;}
	.st3{opacity:0.7;fill:#E6E6E6;}
	.st4{fill:none;stroke:#D57C1C;stroke-width:0.8165;stroke-miterlimit:10;}
	.st5{fill:none;stroke:#414042;stroke-width:0.8165;stroke-miterlimit:10;}
	.st6{fill:none;stroke:#F68E21;stroke-width:0.8165;stroke-miterlimit:10;}
	.st7{fill:none;stroke:#895E3C;stroke-width:0.8165;stroke-miterlimit:10;}
	.st8{fill:#FFFFFF;stroke:#99D7DE;stroke-width:0.8165;stroke-miterlimit:10;}
	.st9{opacity:0.15;fill:#FFFFFF;}
	.st10{fill:none;stroke:#99D7DE;stroke-width:0.8165;stroke-miterlimit:10;}
	.st11{fill:#FFFFFF;stroke:#414042;stroke-width:0.8165;stroke-miterlimit:10;}
	.st12{fill:#414042;}
	.st13{fill:none;stroke:#414042;stroke-width:0.8277;stroke-miterlimit:10;}
	.st14{fill:none;stroke:#414042;stroke-width:0.828;stroke-miterlimit:10;}
	.st15{fill:none;stroke:#D57C1C;stroke-miterlimit:10;}
	.st16{fill:none;stroke:#414042;stroke-miterlimit:10;}
	.st17{fill:none;stroke:#F68E21;stroke-width:0.6514;stroke-miterlimit:10;}
	.st18{fill:#EE4538;}
	.st19{fill:#51b967;}
</style>
<g>
	<circle class="st0" cx="783.6" cy="1823.2" r="18"/>
	<path class="st1" d="M794,1815.8c-0.6-0.6-1.5-0.6-2.1,0l-11.7,11.7l-5-5c-0.6-0.6-1.5-0.6-2.1,0c-0.6,0.6-0.6,1.5,0,2.1l6,6
		c0.3,0.3,0.7,0.4,1,0.4c0.4,0,0.7-0.1,1-0.4l12.7-12.7C794.6,1817.3,794.6,1816.3,794,1815.8z"/>
</g>
<g class="st2">
	<path class="st3" d="M-411.5-172.4L-411.5-172.4L-411.5-172.4c0-3.5-3.6-6.3-8-6.3c-1,0-1.9,0.1-2.7,0.4c-0.4-3.2-3.8-5.6-8-5.6
		c-4.2,0-7.7,2.5-8,5.8c-1-0.3-2-0.5-3.2-0.5c-4.4,0-8,2.8-8,6.3c-4.4,0-8,2.8-8,6.3c0,3.5,3.6,6.3,8,6.3c1.8,0,3.4-0.4,4.7-1.2
		c0.5,3.1,3.9,5.4,7.9,5.4c3.7,0,6.9-2,7.8-4.7c1.4,1.8,3.9,2.9,6.8,2.9c3,0,5.6-1.3,7-3.2c1.1,0.5,2.4,0.7,3.7,0.7
		c4.4,0,8-2.8,8-6.3C-403.5-169.6-407.1-172.4-411.5-172.4z"/>
	<g>
		<rect x="-446" y="-130.3" class="st4" width="74.5" height="18.4"/>
		<polygon class="st5" points="-447.4,-139.1 -369.8,-139.1 -366.3,-129.8 -451.1,-129.8 		"/>
		<rect x="-424.6" y="-149.8" class="st6" width="31.9" height="37.8"/>
		<rect x="-418.1" y="-132.4" class="st7" width="18.7" height="20.5"/>
		<rect x="-417.1" y="-131.3" class="st8" width="16.7" height="19.4"/>
		<polygon class="st9" points="-410.4,-131.3 -417.1,-131.3 -417.1,-127.4 -404.1,-111.9 -400.3,-111.9 -400.3,-119.4 		"/>
		<rect x="-409.1" y="-132.4" class="st7" width="0.8" height="20.5"/>
		<rect x="-442.4" y="-126" class="st7" width="15" height="9.6"/>
		<rect x="-441.8" y="-125.5" class="st10" width="13.9" height="8.6"/>
		<polygon class="st9" points="-432.4,-125.5 -435.4,-125.5 -437.1,-125.5 -429.8,-116.8 -427.9,-116.8 -427.9,-120.2 		"/>
		<polygon class="st9" points="-438.5,-125.5 -441.2,-125.5 -433.9,-116.8 -431,-116.8 		"/>
		<g>
			<g>
				<rect x="-437.7" y="-126" class="st7" width="0.4" height="9.6"/>
				<rect x="-432.2" y="-126" class="st7" width="0.4" height="9.6"/>
			</g>
			<rect x="-442.4" y="-121.4" class="st7" width="15" height="0.4"/>
		</g>
		<rect x="-389.7" y="-126" class="st7" width="15" height="9.6"/>
		<rect x="-389.1" y="-125.5" class="st10" width="13.9" height="8.6"/>
		<polygon class="st9" points="-379.6,-125.5 -382.7,-125.5 -384.3,-125.5 -377,-116.8 -375.1,-116.8 -375.1,-120.2 		"/>
		<polygon class="st9" points="-385.7,-125.5 -388.4,-125.5 -381.2,-116.8 -378.3,-116.8 		"/>
		<g>
			<g>
				<rect x="-384.9" y="-126" class="st7" width="0.4" height="9.6"/>
				<rect x="-379.4" y="-126" class="st7" width="0.4" height="9.6"/>
			</g>
			<rect x="-389.7" y="-121.4" class="st7" width="15" height="0.4"/>
		</g>
		<polygon class="st6" points="-392.8,-136.1 -424.6,-136.1 -424.6,-155 -409.1,-166.3 -392.8,-155 		"/>
		<path class="st11" d="M-408.7-156.5c-3.6,0-6.6,3-6.6,6.6c0,3.6,3,6.6,6.6,6.6s6.6-3,6.6-6.6C-402.1-153.5-405-156.5-408.7-156.5z
			"/>
		<polygon class="st5" points="-427.7,-149.9 -430.4,-154.7 -409.2,-169.8 -388,-155.6 -390.6,-150.7 -409.1,-162.9 		"/>
		<g>
			<g>
				<path class="st12" d="M-405.4-151.8l-2.8,1.6c-0.1-0.1-0.3-0.1-0.4-0.1c-0.2,0-0.3,0-0.4,0.1l-2.8-1.6c-0.3-0.1-0.6-0.1-0.7,0.2
					c-0.1,0.3-0.1,0.6,0.2,0.7l2.9,1.6c0.1,0.4,0.5,0.7,0.9,0.7c0.4,0,0.8-0.3,0.9-0.7l2.9-1.6c0.3-0.1,0.4-0.5,0.2-0.7
					C-404.8-151.9-405.2-152-405.4-151.8z"/>
			</g>
		</g>
		<rect x="-420.2" y="-140.3" class="st11" width="23.1" height="6.6"/>
		<text transform="matrix(1 0 0 1 -416.3679 -135.7514)" class="st12" style="font-family:'Articulate-Bold'; font-size:3.9011px;">SCHOOL</text>
	</g>
</g>
<g>
	<path class="st3" d="M-414.1-30.6L-414.1-30.6L-414.1-30.6c0-3.7-3.8-6.7-8.5-6.7c-1,0-2,0.1-2.9,0.4c-0.4-3.4-4.1-6-8.5-6
		c-4.5,0-8.1,2.7-8.5,6.1c-1-0.3-2.2-0.5-3.4-0.5c-4.7,0-8.5,3-8.5,6.7c-4.7,0-8.5,3-8.5,6.7c0,3.7,3.8,6.7,8.5,6.7
		c1.9,0,3.6-0.5,5-1.3c0.6,3.3,4.1,5.8,8.5,5.8c4,0,7.3-2.1,8.3-5c1.5,1.9,4.2,3.1,7.2,3.1c3.2,0,5.9-1.4,7.4-3.4
		c1.2,0.5,2.5,0.8,4,0.8c4.7,0,8.5-3,8.5-6.7C-405.6-27.6-409.4-30.6-414.1-30.6z"/>
	<rect x="-452.8" y="2.2" class="st4" width="74.5" height="18.4"/>
	<polygon class="st6" points="-401.7,-6.5 -429.2,-6.5 -429.2,-22.8 -415.9,-32.6 -401.7,-22.8 	"/>
	<rect x="-429.2" y="-17.9" class="st6" width="27.5" height="11.4"/>
	<path class="st11" d="M-415.5-24.1c-3.1,0-5.7,2.6-5.7,5.7s2.6,5.7,5.7,5.7s5.7-2.6,5.7-5.7C-409.8-21.6-412.3-24.1-415.5-24.1z"/>
	<polygon class="st5" points="-431.9,-18.4 -434.3,-22.6 -415.9,-35.6 -397.7,-23.4 -399.9,-19.2 -415.8,-29.7 	"/>
	<g>
		<g>
			<path class="st12" d="M-412.7-20.1l-2.4,1.3c-0.1-0.1-0.2-0.1-0.4-0.1c-0.1,0-0.3,0-0.4,0.1l-2.4-1.3c-0.2-0.1-0.5,0-0.6,0.2
				c-0.1,0.2,0,0.5,0.2,0.6l2.5,1.4c0.1,0.4,0.4,0.6,0.8,0.6c0.4,0,0.7-0.3,0.8-0.6l2.5-1.4c0.2-0.1,0.3-0.4,0.2-0.6
				C-412.2-20.2-412.5-20.3-412.7-20.1z"/>
		</g>
	</g>
	<rect x="-452.8" y="29.2" class="st4" width="74.5" height="18.4"/>
	<polygon class="st5" points="-454.2,20.5 -376.7,20.5 -373.2,29.7 -458,29.7 	"/>
	<rect x="-431.5" y="2.2" class="st6" width="31.9" height="45.5"/>
	<rect x="-431.5" y="22.6" class="st6" width="31.9" height="25.1"/>
	<rect x="-424.9" y="27.1" class="st7" width="18.7" height="20.5"/>
	<rect x="-423.9" y="28.2" class="st8" width="16.7" height="19.4"/>
	<polygon class="st9" points="-417.3,28.2 -423.9,28.2 -423.9,32.2 -411,47.7 -407.2,47.7 -407.2,40.2 	"/>
	<rect x="-415.9" y="27.1" class="st7" width="0.8" height="20.5"/>
	<rect x="-449.3" y="33.6" class="st7" width="15" height="9.6"/>
	<rect x="-448.7" y="34.1" class="st10" width="13.9" height="8.6"/>
	<polygon class="st9" points="-439.2,34.1 -442.3,34.1 -443.9,34.1 -436.6,42.7 -434.8,42.7 -434.8,39.4 	"/>
	<polygon class="st9" points="-445.4,34.1 -448.1,34.1 -440.8,42.7 -437.9,42.7 	"/>
	<g>
		<g>
			<rect x="-444.6" y="33.6" class="st7" width="0.4" height="9.6"/>
			<rect x="-439" y="33.6" class="st7" width="0.4" height="9.6"/>
		</g>
		<rect x="-449.3" y="38.2" class="st7" width="15" height="0.4"/>
	</g>
	<rect x="-396.5" y="33.6" class="st7" width="15" height="9.6"/>
	<rect x="-395.9" y="34.1" class="st10" width="13.9" height="8.6"/>
	<polygon class="st9" points="-386.5,34.1 -389.5,34.1 -391.2,34.1 -383.9,42.7 -382,42.7 -382,39.4 	"/>
	<polygon class="st9" points="-392.6,34.1 -395.3,34.1 -388,42.7 -385.1,42.7 	"/>
	<g>
		<g>
			<rect x="-391.8" y="33.6" class="st7" width="0.4" height="9.6"/>
			<rect x="-386.3" y="33.6" class="st7" width="0.4" height="9.6"/>
		</g>
		<rect x="-396.5" y="38.2" class="st7" width="15" height="0.4"/>
	</g>
	<polygon class="st5" points="-454.2,-6.5 -376.7,-6.5 -373.2,2.7 -458,2.7 	"/>
	<rect x="-449.5" y="6.5" class="st7" width="15" height="9.6"/>
	<rect x="-449" y="7.1" class="st10" width="13.9" height="8.6"/>
	<polygon class="st9" points="-439.5,7.1 -442.6,7.1 -444.2,7.1 -436.9,15.7 -435,15.7 -435,12.3 	"/>
	<polygon class="st9" points="-445.6,7.1 -448.3,7.1 -441.1,15.7 -438.2,15.7 	"/>
	<g>
		<g>
			<rect x="-444.8" y="6.5" class="st7" width="0.4" height="9.6"/>
			<rect x="-439.3" y="6.5" class="st7" width="0.4" height="9.6"/>
		</g>
		<rect x="-449.6" y="11.1" class="st7" width="15" height="0.4"/>
	</g>
	<rect x="-396.5" y="6.5" class="st7" width="15" height="9.6"/>
	<rect x="-395.9" y="7.1" class="st10" width="13.9" height="8.6"/>
	<polygon class="st9" points="-386.5,7.1 -389.5,7.1 -391.2,7.1 -383.9,15.7 -382,15.7 -382,12.3 	"/>
	<polygon class="st9" points="-392.6,7.1 -395.3,7.1 -388,15.7 -385.1,15.7 	"/>
	<g>
		<g>
			<rect x="-391.8" y="6.6" class="st7" width="0.4" height="9.6"/>
			<rect x="-386.3" y="6.6" class="st7" width="0.4" height="9.6"/>
		</g>
		<rect x="-396.5" y="11.1" class="st7" width="15" height="0.4"/>
	</g>
	<rect x="-423.4" y="6.3" class="st7" width="15" height="9.6"/>
	<rect x="-422.9" y="6.8" class="st10" width="13.9" height="8.6"/>
	<polygon class="st9" points="-413.4,6.8 -416.5,6.8 -418.1,6.8 -410.8,15.5 -408.9,15.5 -408.9,12.1 	"/>
	<polygon class="st9" points="-419.5,6.8 -422.2,6.8 -415,15.5 -412.1,15.5 	"/>
	<g>
		<g>
			<rect x="-418.7" y="6.3" class="st7" width="0.4" height="9.6"/>
			<rect x="-413.2" y="6.3" class="st7" width="0.4" height="9.6"/>
		</g>
		<rect x="-423.5" y="10.9" class="st7" width="15" height="0.4"/>
	</g>
	<rect x="-427.1" y="19.3" class="st11" width="23.1" height="6.6"/>
	<text transform="matrix(1 0 0 1 -423.7852 24.0267)" class="st12" style="font-family:'Articulate-Bold'; font-size:3.9011px;">COLLEGE</text>
</g>
<g>
	<path class="st3" d="M-415,86.1L-415,86.1L-415,86.1c0-3.7-3.8-6.7-8.5-6.7c-1,0-2,0.1-2.9,0.4c-0.4-3.4-4.1-6-8.5-6
		c-4.5,0-8.1,2.7-8.5,6.1c-1-0.3-2.2-0.5-3.4-0.5c-4.7,0-8.5,3-8.5,6.7c-4.7,0-8.5,3-8.5,6.7c0,3.7,3.8,6.7,8.5,6.7
		c1.9,0,3.6-0.5,5-1.3c0.6,3.3,4.1,5.8,8.5,5.8c4,0,7.3-2.1,8.3-5c1.5,1.9,4.2,3.1,7.2,3.1c3.2,0,5.9-1.4,7.4-3.4
		c1.2,0.5,2.5,0.8,4,0.8c4.7,0,8.5-3,8.5-6.7C-406.5,89.1-410.3,86.1-415,86.1z"/>
	<rect x="-453.7" y="118.9" class="st4" width="74.5" height="18.4"/>
	<polygon class="st6" points="-402.7,110.2 -430.1,110.2 -430.1,93.9 -416.8,84.1 -402.7,93.9 	"/>
	<rect x="-430.1" y="98.8" class="st6" width="27.5" height="11.4"/>
	<path class="st11" d="M-416.4,92.6c-3.1,0-5.7,2.6-5.7,5.7c0,3.1,2.6,5.7,5.7,5.7s5.7-2.6,5.7-5.7
		C-410.7,95.2-413.2,92.6-416.4,92.6z"/>
	<polygon class="st5" points="-432.8,98.3 -435.2,94.2 -416.8,81.1 -398.6,93.4 -400.8,97.6 -416.7,87.1 	"/>
	<g>
		<g>
			<path class="st12" d="M-413.6,96.6L-416,98c-0.1-0.1-0.2-0.1-0.4-0.1c-0.1,0-0.3,0-0.4,0.1l-2.4-1.3c-0.2-0.1-0.5,0-0.6,0.2
				c-0.1,0.2,0,0.5,0.2,0.6l2.5,1.4c0.1,0.4,0.4,0.6,0.8,0.6c0.4,0,0.7-0.3,0.8-0.6l2.5-1.4c0.2-0.1,0.3-0.4,0.2-0.6
				C-413.1,96.6-413.4,96.5-413.6,96.6z"/>
		</g>
	</g>
	<rect x="-453.7" y="146" class="st4" width="74.5" height="18.4"/>
	<polygon class="st5" points="-455.2,137.3 -377.6,137.3 -374.1,146.5 -458.9,146.5 	"/>
	<rect x="-432.4" y="118.9" class="st6" width="31.9" height="45.5"/>
	<rect x="-432.4" y="139.4" class="st6" width="31.9" height="25.1"/>
	<rect x="-425.8" y="143.9" class="st7" width="18.7" height="20.5"/>
	<rect x="-424.8" y="145" class="st8" width="16.7" height="19.4"/>
	<polygon class="st9" points="-418.2,145 -424.8,145 -424.8,149 -411.9,164.4 -408.1,164.4 -408.1,156.9 	"/>
	<rect x="-416.9" y="143.9" class="st7" width="0.8" height="20.5"/>
	<rect x="-450.2" y="150.4" class="st7" width="15" height="9.6"/>
	<rect x="-449.6" y="150.9" class="st10" width="13.9" height="8.6"/>
	<polygon class="st9" points="-440.1,150.9 -443.2,150.9 -444.8,150.9 -437.6,159.5 -435.7,159.5 -435.7,156.1 	"/>
	<polygon class="st9" points="-446.3,150.9 -449,150.9 -441.7,159.5 -438.8,159.5 	"/>
	<g>
		<g>
			<rect x="-445.5" y="150.4" class="st7" width="0.4" height="9.6"/>
			<rect x="-439.9" y="150.4" class="st7" width="0.4" height="9.6"/>
		</g>
		<rect x="-450.2" y="155" class="st7" width="15" height="0.4"/>
	</g>
	<rect x="-397.4" y="150.4" class="st7" width="15" height="9.6"/>
	<rect x="-396.9" y="150.9" class="st10" width="13.9" height="8.6"/>
	<polygon class="st9" points="-387.4,150.9 -390.4,150.9 -392.1,150.9 -384.8,159.5 -382.9,159.5 -382.9,156.1 	"/>
	<polygon class="st9" points="-393.5,150.9 -396.2,150.9 -388.9,159.5 -386.1,159.5 	"/>
	<g>
		<g>
			<rect x="-392.7" y="150.4" class="st7" width="0.4" height="9.6"/>
			<rect x="-387.2" y="150.4" class="st7" width="0.4" height="9.6"/>
		</g>
		<rect x="-397.5" y="155" class="st7" width="15" height="0.4"/>
	</g>
	<polygon class="st5" points="-455.2,110.2 -377.6,110.2 -374.1,119.4 -458.9,119.4 	"/>
	<rect x="-450.5" y="123.3" class="st7" width="15" height="9.6"/>
	<rect x="-449.9" y="123.8" class="st10" width="13.9" height="8.6"/>
	<polygon class="st9" points="-440.4,123.8 -443.5,123.8 -445.1,123.8 -437.8,132.4 -435.9,132.4 -435.9,129.1 	"/>
	<polygon class="st9" points="-446.5,123.8 -449.2,123.8 -442,132.4 -439.1,132.4 	"/>
	<g>
		<g>
			<rect x="-445.7" y="123.3" class="st7" width="0.4" height="9.6"/>
			<rect x="-440.2" y="123.3" class="st7" width="0.4" height="9.6"/>
		</g>
		<rect x="-450.5" y="127.9" class="st7" width="15" height="0.4"/>
	</g>
	<rect x="-397.4" y="123.3" class="st7" width="15" height="9.6"/>
	<rect x="-396.9" y="123.8" class="st10" width="13.9" height="8.6"/>
	<polygon class="st9" points="-387.4,123.8 -390.4,123.8 -392.1,123.8 -384.8,132.4 -382.9,132.4 -382.9,129.1 	"/>
	<polygon class="st9" points="-393.5,123.8 -396.2,123.8 -388.9,132.4 -386.1,132.4 	"/>
	<g>
		<g>
			<rect x="-392.7" y="123.3" class="st7" width="0.4" height="9.6"/>
			<rect x="-387.2" y="123.3" class="st7" width="0.4" height="9.6"/>
		</g>
		<rect x="-397.5" y="127.9" class="st7" width="15" height="0.4"/>
	</g>
	<rect x="-424.4" y="123.1" class="st7" width="15" height="9.6"/>
	<rect x="-423.8" y="123.6" class="st10" width="13.9" height="8.6"/>
	<polygon class="st9" points="-414.3,123.6 -417.4,123.6 -419,123.6 -411.7,132.2 -409.8,132.2 -409.8,128.8 	"/>
	<polygon class="st9" points="-420.4,123.6 -423.1,123.6 -415.9,132.2 -413,132.2 	"/>
	<g>
		<g>
			<rect x="-419.6" y="123.1" class="st7" width="0.4" height="9.6"/>
			<rect x="-414.1" y="123.1" class="st7" width="0.4" height="9.6"/>
		</g>
		<rect x="-424.4" y="127.7" class="st7" width="15" height="0.4"/>
	</g>
	<rect x="-428" y="136.1" class="st11" width="23.1" height="6.6"/>
	<text transform="matrix(1 0 0 1 -424.6978 140.7682)" class="st12" style="font-family:'Articulate-Bold'; font-size:3.9011px;">COLLEGE</text>
</g>
<g>
	<path class="st3" d="M-423.9,204L-423.9,204L-423.9,204c0-3.7-3.8-6.7-8.5-6.7c-1,0-2,0.1-2.9,0.4c-0.4-3.4-4.1-6-8.5-6
		c-4.5,0-8.1,2.7-8.5,6.1c-1-0.3-2.2-0.5-3.4-0.5c-4.7,0-8.5,3-8.5,6.7c-4.7,0-8.5,3-8.5,6.7c0,3.7,3.8,6.7,8.5,6.7
		c1.9,0,3.6-0.5,5-1.3c0.6,3.3,4.1,5.8,8.5,5.8c4,0,7.3-2.1,8.3-5c1.5,1.9,4.2,3.1,7.2,3.1c3.2,0,5.9-1.4,7.4-3.4
		c1.2,0.5,2.5,0.8,4,0.8c4.7,0,8.5-3,8.5-6.7C-415.4,207-419.2,204-423.9,204z"/>
	<g>
		<rect x="-434" y="251.7" class="st4" width="74.5" height="18.4"/>
		<rect x="-434" y="278.8" class="st4" width="74.5" height="18.4"/>
		<polygon class="st5" points="-435.4,270.1 -357.8,270.1 -357.9,279.3 -435.4,279.3 		"/>
		<rect x="-412.7" y="251.7" class="st6" width="31.9" height="45.5"/>
		<rect x="-412.7" y="272.2" class="st6" width="31.9" height="25.1"/>
		<rect x="-406.1" y="276.7" class="st7" width="18.7" height="20.5"/>
		<rect x="-405.1" y="277.8" class="st8" width="16.7" height="19.4"/>
		<polygon class="st9" points="-398.4,277.8 -405.1,277.8 -405.1,281.8 -392.2,297.2 -388.4,297.2 -388.4,289.7 		"/>
		<rect x="-397.1" y="276.7" class="st7" width="0.8" height="20.5"/>
		<rect x="-430.4" y="283.2" class="st7" width="15" height="9.6"/>
		<rect x="-429.9" y="283.7" class="st10" width="13.9" height="8.6"/>
		<polygon class="st9" points="-420.4,283.7 -423.4,283.7 -425.1,283.7 -417.8,292.3 -415.9,292.3 -415.9,288.9 		"/>
		<polygon class="st9" points="-426.5,283.7 -429.2,283.7 -421.9,292.3 -419.1,292.3 		"/>
		<g>
			<g>
				<rect x="-425.7" y="283.2" class="st7" width="0.4" height="9.6"/>
				<rect x="-420.2" y="283.2" class="st7" width="0.4" height="9.6"/>
			</g>
			<rect x="-430.5" y="287.8" class="st7" width="15" height="0.4"/>
		</g>
		<rect x="-377.7" y="283.2" class="st7" width="15" height="9.6"/>
		<rect x="-377.1" y="283.7" class="st10" width="13.9" height="8.6"/>
		<polygon class="st9" points="-367.6,283.7 -370.7,283.7 -372.3,283.7 -365,292.3 -363.2,292.3 -363.2,288.9 		"/>
		<polygon class="st9" points="-373.7,283.7 -376.5,283.7 -369.2,292.3 -366.3,292.3 		"/>
		<g>
			<g>
				<rect x="-373" y="283.2" class="st7" width="0.4" height="9.6"/>
				<rect x="-367.4" y="283.2" class="st7" width="0.4" height="9.6"/>
			</g>
			<rect x="-377.7" y="287.8" class="st7" width="15" height="0.4"/>
		</g>
		<polygon class="st5" points="-435.4,243 -357.8,243 -357.8,252.3 -435.4,252.2 		"/>
		<rect x="-430.7" y="256.1" class="st7" width="15" height="9.6"/>
		<rect x="-430.1" y="256.6" class="st10" width="13.9" height="8.6"/>
		<polygon class="st9" points="-420.6,256.6 -423.7,256.6 -425.3,256.6 -418.1,265.2 -416.2,265.2 -416.2,261.9 		"/>
		<polygon class="st9" points="-426.8,256.6 -429.5,256.6 -422.2,265.2 -419.3,265.2 		"/>
		<g>
			<g>
				<rect x="-426" y="256.1" class="st7" width="0.4" height="9.6"/>
				<rect x="-420.4" y="256.1" class="st7" width="0.4" height="9.6"/>
			</g>
			<rect x="-430.7" y="260.7" class="st7" width="15" height="0.4"/>
		</g>
		<rect x="-377.7" y="256.1" class="st7" width="15" height="9.6"/>
		<rect x="-377.1" y="256.6" class="st10" width="13.9" height="8.6"/>
		<polygon class="st9" points="-367.6,256.6 -370.7,256.6 -372.3,256.6 -365,265.2 -363.2,265.2 -363.2,261.9 		"/>
		<polygon class="st9" points="-373.7,256.6 -376.5,256.6 -369.2,265.2 -366.3,265.2 		"/>
		<g>
			<g>
				<rect x="-373" y="256.1" class="st7" width="0.4" height="9.6"/>
				<rect x="-367.4" y="256.1" class="st7" width="0.4" height="9.6"/>
			</g>
			<rect x="-377.7" y="260.7" class="st7" width="15" height="0.4"/>
		</g>
		<rect x="-404.6" y="255.9" class="st7" width="15" height="9.6"/>
		<rect x="-404" y="256.4" class="st10" width="13.9" height="8.6"/>
		<polygon class="st9" points="-394.5,256.4 -397.6,256.4 -399.2,256.4 -392,265 -390.1,265 -390.1,261.7 		"/>
		<polygon class="st9" points="-400.7,256.4 -403.4,256.4 -396.1,265 -393.2,265 		"/>
		<g>
			<g>
				<rect x="-399.9" y="255.9" class="st7" width="0.4" height="9.6"/>
				<rect x="-394.3" y="255.9" class="st7" width="0.4" height="9.6"/>
			</g>
			<rect x="-404.6" y="260.5" class="st7" width="15" height="0.4"/>
		</g>
		<rect x="-434" y="224.6" class="st4" width="74.5" height="18.4"/>
		<rect x="-412.7" y="224.6" class="st6" width="31.9" height="45.5"/>
		<polygon class="st13" points="-435.4,215.6 -357.8,215.6 -357.8,225.2 -435.4,225.1 		"/>
		<rect x="-430.7" y="229" class="st7" width="15" height="9.6"/>
		<rect x="-430.1" y="229.5" class="st10" width="13.9" height="8.6"/>
		<polygon class="st9" points="-420.6,229.5 -423.7,229.5 -425.3,229.5 -418.1,238.1 -416.2,238.1 -416.2,234.7 		"/>
		<polygon class="st9" points="-426.8,229.5 -429.5,229.5 -422.2,238.1 -419.3,238.1 		"/>
		<g>
			<g>
				<rect x="-426" y="229" class="st7" width="0.4" height="9.6"/>
				<rect x="-420.4" y="229" class="st7" width="0.4" height="9.6"/>
			</g>
			<rect x="-430.7" y="233.6" class="st7" width="15" height="0.4"/>
		</g>
		<rect x="-377.7" y="229" class="st7" width="15" height="9.6"/>
		<rect x="-377.1" y="229.5" class="st10" width="13.9" height="8.6"/>
		<polygon class="st9" points="-367.6,229.5 -370.7,229.5 -372.3,229.5 -365,238.1 -363.2,238.1 -363.2,234.7 		"/>
		<polygon class="st9" points="-373.7,229.5 -376.5,229.5 -369.2,238.1 -366.3,238.1 		"/>
		<g>
			<g>
				<rect x="-373" y="229" class="st7" width="0.4" height="9.6"/>
				<rect x="-367.4" y="229" class="st7" width="0.4" height="9.6"/>
			</g>
			<rect x="-377.7" y="233.6" class="st7" width="15" height="0.4"/>
		</g>
		<rect x="-404.6" y="228.8" class="st7" width="15" height="9.6"/>
		<rect x="-404" y="229.3" class="st10" width="13.9" height="8.6"/>
		<polygon class="st9" points="-394.5,229.3 -397.6,229.3 -399.2,229.3 -392,237.9 -390.1,237.9 -390.1,234.5 		"/>
		<polygon class="st9" points="-400.7,229.3 -403.4,229.3 -396.1,237.9 -393.2,237.9 		"/>
		<g>
			<g>
				<rect x="-399.9" y="228.8" class="st7" width="0.4" height="9.6"/>
				<rect x="-394.3" y="228.8" class="st7" width="0.4" height="9.6"/>
			</g>
			<rect x="-404.6" y="233.4" class="st7" width="15" height="0.4"/>
		</g>
		<rect x="-434" y="197.4" class="st4" width="74.5" height="18.4"/>
		<rect x="-412.7" y="197.4" class="st6" width="31.9" height="45.5"/>
		<polygon class="st14" points="-435.4,193.2 -357.8,193.2 -357.8,197.9 -435.4,197.9 		"/>
		<rect x="-430.7" y="201.7" class="st7" width="15" height="9.6"/>
		<rect x="-430.1" y="202.2" class="st10" width="13.9" height="8.6"/>
		<polygon class="st9" points="-420.6,202.2 -423.7,202.2 -425.3,202.2 -418.1,210.9 -416.2,210.9 -416.2,207.5 		"/>
		<polygon class="st9" points="-426.8,202.2 -429.5,202.2 -422.2,210.9 -419.3,210.9 		"/>
		<g>
			<g>
				<rect x="-426" y="201.7" class="st7" width="0.4" height="9.6"/>
				<rect x="-420.4" y="201.7" class="st7" width="0.4" height="9.6"/>
			</g>
			<rect x="-430.7" y="206.3" class="st7" width="15" height="0.4"/>
		</g>
		<rect x="-377.7" y="201.7" class="st7" width="15" height="9.6"/>
		<rect x="-377.1" y="202.2" class="st10" width="13.9" height="8.6"/>
		<polygon class="st9" points="-367.6,202.2 -370.7,202.2 -372.3,202.2 -365,210.9 -363.2,210.9 -363.2,207.5 		"/>
		<polygon class="st9" points="-373.7,202.2 -376.5,202.2 -369.2,210.9 -366.3,210.9 		"/>
		<g>
			<g>
				<rect x="-373" y="201.8" class="st7" width="0.4" height="9.6"/>
				<rect x="-367.4" y="201.8" class="st7" width="0.4" height="9.6"/>
			</g>
			<rect x="-377.7" y="206.3" class="st7" width="15" height="0.4"/>
		</g>
		<rect x="-404.6" y="201.5" class="st7" width="15" height="9.6"/>
		<rect x="-404" y="202" class="st10" width="13.9" height="8.6"/>
		<polygon class="st9" points="-394.5,202 -397.6,202 -399.2,202 -392,210.6 -390.1,210.6 -390.1,207.3 		"/>
		<polygon class="st9" points="-400.7,202 -403.4,202 -396.1,210.6 -393.2,210.6 		"/>
		<g>
			<g>
				<rect x="-399.9" y="201.5" class="st7" width="0.4" height="9.6"/>
				<rect x="-394.3" y="201.5" class="st7" width="0.4" height="9.6"/>
			</g>
			<rect x="-404.6" y="206.1" class="st7" width="15" height="0.4"/>
		</g>
		<rect x="-408.3" y="268.9" class="st11" width="23.1" height="6.6"/>
		<text transform="matrix(1 0 0 1 -404.9351 273.5736)" class="st12" style="font-family:'Articulate-Bold'; font-size:3.9011px;">COLLEGE</text>
		<g>
			<path class="st11" d="M-396.6,214.7c-3.1,0-5.7,2.6-5.7,5.7c0,3.1,2.6,5.7,5.7,5.7s5.7-2.6,5.7-5.7
				C-390.9,217.3-393.5,214.7-396.6,214.7z"/>
			<g>
				<g>
					<path class="st12" d="M-393.8,218.7l-2.4,1.3c-0.1-0.1-0.2-0.1-0.4-0.1c-0.1,0-0.3,0-0.4,0.1l-2.4-1.3c-0.2-0.1-0.5,0-0.6,0.2
						c-0.1,0.2,0,0.5,0.2,0.6l2.5,1.4c0.1,0.4,0.4,0.6,0.8,0.6c0.4,0,0.7-0.3,0.8-0.6l2.5-1.4c0.2-0.1,0.3-0.4,0.2-0.6
						C-393.3,218.7-393.6,218.6-393.8,218.7z"/>
				</g>
			</g>
		</g>
	</g>
</g>
<g>
	<path class="st3" d="M-546.8-150.6L-546.8-150.6L-546.8-150.6c0-3.5-3.6-6.3-8-6.3c-1,0-1.9,0.1-2.7,0.4c-0.4-3.2-3.8-5.6-8-5.6
		c-4.2,0-7.7,2.5-8,5.8c-1-0.3-2-0.5-3.2-0.5c-4.4,0-8,2.8-8,6.3c-4.4,0-8,2.8-8,6.3c0,3.5,3.6,6.3,8,6.3c1.8,0,3.4-0.4,4.7-1.2
		c0.5,3.1,3.9,5.4,7.9,5.4c3.7,0,6.9-2,7.8-4.7c1.4,1.8,3.9,2.9,6.8,2.9c3,0,5.6-1.3,7-3.2c1.1,0.5,2.4,0.7,3.7,0.7
		c4.4,0,8-2.8,8-6.3C-538.8-147.8-542.4-150.6-546.8-150.6z"/>
	<rect x="-569.4" y="-123.7" class="st15" width="50.7" height="18.4"/>
	<polygon class="st16" points="-569.3,-132.4 -518.7,-132.4 -516.4,-123.2 -571.7,-123.2 	"/>
	<rect x="-560" y="-129.3" class="st17" width="31.9" height="24.1"/>
	<rect x="-553.4" y="-125.8" class="st7" width="18.7" height="20.5"/>
	<rect x="-552.4" y="-124.7" class="st8" width="16.7" height="19.4"/>
	<polygon class="st9" points="-545.8,-124.7 -552.4,-124.7 -552.4,-120.7 -539.5,-105.2 -535.7,-105.2 -535.7,-112.8 	"/>
	<rect x="-544.4" y="-125.8" class="st7" width="0.8" height="20.5"/>
	<polygon class="st6" points="-528.1,-109.1 -559.9,-109.1 -559.9,-136.6 -544.5,-148 -528.1,-136.6 	"/>
	<polygon class="st5" points="-562.7,-132.3 -565.4,-137.2 -544.5,-151.5 -523.4,-137.4 -526,-132.4 -544.4,-144.6 	"/>
	<rect x="-555.6" y="-133.6" class="st11" width="23.1" height="6.6"/>
	<text transform="matrix(1 0 0 1 -551.71 -129.067)" class="st12" style="font-family:'Articulate-Bold'; font-size:3.9011px;">SCHOOL</text>
</g>
<g class="st2">
	<path class="st3" d="M221.4-21.6L221.4-21.6L221.4-21.6c0-3.5-3.6-6.3-8-6.3c-1,0-1.9,0.1-2.7,0.4c-0.4-3.2-3.8-5.6-8-5.6
		c-4.2,0-7.7,2.5-8,5.8c-1-0.3-2-0.5-3.2-0.5c-4.4,0-8,2.8-8,6.3c-4.4,0-8,2.8-8,6.3c0,3.5,3.6,6.3,8,6.3c1.8,0,3.4-0.4,4.7-1.2
		c0.5,3.1,3.9,5.4,7.9,5.4c3.7,0,6.9-2,7.8-4.7c1.4,1.8,3.9,2.9,6.8,2.9c3,0,5.6-1.3,7-3.2c1.1,0.5,2.4,0.7,3.7,0.7
		c4.4,0,8-2.8,8-6.3C229.4-18.8,225.8-21.6,221.4-21.6z"/>
	<g>
		<rect x="186.9" y="20.5" class="st4" width="74.5" height="18.4"/>
		<polygon class="st5" points="185.5,11.8 263,11.8 266.6,21 181.8,21 		"/>
		<rect x="208.2" y="1.1" class="st6" width="31.9" height="37.8"/>
		<rect x="214.8" y="18.4" class="st7" width="18.7" height="20.5"/>
		<rect x="215.8" y="19.5" class="st8" width="16.7" height="19.4"/>
		<polygon class="st9" points="222.4,19.5 215.8,19.5 215.8,23.5 228.7,38.9 232.5,38.9 232.5,31.4 		"/>
		<rect x="223.8" y="18.4" class="st7" width="0.8" height="20.5"/>
		<rect x="190.4" y="24.9" class="st7" width="15" height="9.6"/>
		<rect x="191" y="25.4" class="st10" width="13.9" height="8.6"/>
		<polygon class="st9" points="200.5,25.4 197.4,25.4 195.8,25.4 203.1,34 205,34 205,30.6 		"/>
		<polygon class="st9" points="194.4,25.4 191.7,25.4 198.9,34 201.8,34 		"/>
		<g>
			<g>
				<rect x="195.2" y="24.9" class="st7" width="0.4" height="9.6"/>
				<rect x="200.7" y="24.9" class="st7" width="0.4" height="9.6"/>
			</g>
			<rect x="190.4" y="29.5" class="st7" width="15" height="0.4"/>
		</g>
		<rect x="243.2" y="24.9" class="st7" width="15" height="9.6"/>
		<rect x="243.8" y="25.4" class="st10" width="13.9" height="8.6"/>
		<polygon class="st9" points="253.2,25.4 250.2,25.4 248.6,25.4 255.8,34 257.7,34 257.7,30.6 		"/>
		<polygon class="st9" points="247.1,25.4 244.4,25.4 251.7,34 254.6,34 		"/>
		<g>
			<g>
				<rect x="247.9" y="24.9" class="st7" width="0.4" height="9.6"/>
				<rect x="253.5" y="24.9" class="st7" width="0.4" height="9.6"/>
			</g>
			<rect x="243.2" y="29.5" class="st7" width="15" height="0.4"/>
		</g>
		<polygon class="st6" points="240.1,14.7 208.3,14.7 208.3,-4.1 223.7,-15.5 240.1,-4.1 		"/>
		<path class="st11" d="M224.2-5.6c-3.6,0-6.6,3-6.6,6.6s3,6.6,6.6,6.6c3.6,0,6.6-3,6.6-6.6C230.8-2.7,227.8-5.6,224.2-5.6z"/>
		<polygon class="st5" points="205.1,1 202.4,-3.8 223.7,-18.9 244.8,-4.8 242.2,0.1 223.8,-12 		"/>
		<g>
			<g>
				<path class="st12" d="M227.4-1l-2.8,1.6c-0.1-0.1-0.3-0.1-0.4-0.1c-0.2,0-0.3,0-0.4,0.1L220.9-1c-0.3-0.1-0.6-0.1-0.7,0.2
					c-0.1,0.3-0.1,0.6,0.2,0.7l2.9,1.6c0.1,0.4,0.5,0.7,0.9,0.7c0.4,0,0.8-0.3,0.9-0.7l2.9-1.6c0.3-0.1,0.4-0.5,0.2-0.7
					C228-1,227.7-1.1,227.4-1z"/>
			</g>
		</g>
		<rect x="212.6" y="10.6" class="st11" width="23.1" height="6.6"/>
		<text transform="matrix(1 0 0 1 216.4873 15.0795)" class="st12" style="font-family:'Articulate-Bold'; font-size:3.9011px;">SCHOOL</text>
	</g>
</g>
<g>
	<path class="st3" d="M234.7,86.4L234.7,86.4L234.7,86.4c0-3.7-3.8-6.7-8.5-6.7c-1,0-2,0.1-2.9,0.4c-0.4-3.4-4.1-6-8.5-6
		c-4.5,0-8.1,2.7-8.5,6.1c-1-0.3-2.2-0.5-3.4-0.5c-4.7,0-8.5,3-8.5,6.7c-4.7,0-8.5,3-8.5,6.7c0,3.7,3.8,6.7,8.5,6.7
		c1.9,0,3.6-0.5,5-1.3c0.6,3.3,4.1,5.8,8.5,5.8c4,0,7.3-2.1,8.3-5c1.5,1.9,4.2,3.1,7.2,3.1c3.2,0,5.9-1.4,7.4-3.4
		c1.2,0.5,2.5,0.8,4,0.8c4.7,0,8.5-3,8.5-6.7C243.3,89.4,239.4,86.4,234.7,86.4z"/>
	<rect x="196" y="119.2" class="st4" width="74.5" height="18.4"/>
	<polygon class="st6" points="247.1,110.5 219.6,110.5 219.6,94.2 233,84.4 247.1,94.2 	"/>
	<rect x="219.6" y="99.1" class="st6" width="27.5" height="11.4"/>
	<path class="st11" d="M233.4,92.9c-3.1,0-5.7,2.6-5.7,5.7s2.6,5.7,5.7,5.7c3.1,0,5.7-2.6,5.7-5.7C239.1,95.4,236.5,92.9,233.4,92.9
		z"/>
	<polygon class="st5" points="216.9,98.6 214.6,94.4 232.9,81.4 251.2,93.6 249,97.8 233,87.3 	"/>
	<g>
		<g>
			<path class="st12" d="M236.2,96.9l-2.4,1.3c-0.1-0.1-0.2-0.1-0.4-0.1c-0.1,0-0.3,0-0.4,0.1l-2.4-1.3c-0.2-0.1-0.5,0-0.6,0.2
				c-0.1,0.2,0,0.5,0.2,0.6l2.5,1.4c0.1,0.4,0.4,0.6,0.8,0.6c0.4,0,0.7-0.3,0.8-0.6l2.5-1.4c0.2-0.1,0.3-0.4,0.2-0.6
				C236.7,96.8,236.4,96.7,236.2,96.9z"/>
		</g>
	</g>
	<rect x="196" y="146.2" class="st4" width="74.5" height="18.4"/>
	<polygon class="st5" points="194.6,137.5 272.1,137.5 275.7,146.7 190.9,146.7 	"/>
	<rect x="217.3" y="119.2" class="st6" width="31.9" height="45.5"/>
	<rect x="217.3" y="139.6" class="st6" width="31.9" height="25.1"/>
	<rect x="223.9" y="144.1" class="st7" width="18.7" height="20.5"/>
	<rect x="224.9" y="145.2" class="st8" width="16.7" height="19.4"/>
	<polygon class="st9" points="231.5,145.2 224.9,145.2 224.9,149.2 237.8,164.7 241.6,164.7 241.6,157.2 	"/>
	<rect x="232.9" y="144.1" class="st7" width="0.8" height="20.5"/>
	<rect x="199.6" y="150.6" class="st7" width="15" height="9.6"/>
	<rect x="200.1" y="151.1" class="st10" width="13.9" height="8.6"/>
	<polygon class="st9" points="209.6,151.1 206.6,151.1 204.9,151.1 212.2,159.7 214.1,159.7 214.1,156.4 	"/>
	<polygon class="st9" points="203.5,151.1 200.8,151.1 208.1,159.7 210.9,159.7 	"/>
	<g>
		<g>
			<rect x="204.3" y="150.6" class="st7" width="0.4" height="9.6"/>
			<rect x="209.8" y="150.6" class="st7" width="0.4" height="9.6"/>
		</g>
		<rect x="199.5" y="155.2" class="st7" width="15" height="0.4"/>
	</g>
	<rect x="252.3" y="150.6" class="st7" width="15" height="9.6"/>
	<rect x="252.9" y="151.1" class="st10" width="13.9" height="8.6"/>
	<polygon class="st9" points="262.4,151.1 259.3,151.1 257.7,151.1 265,159.7 266.8,159.7 266.8,156.4 	"/>
	<polygon class="st9" points="256.3,151.1 253.5,151.1 260.8,159.7 263.7,159.7 	"/>
	<g>
		<g>
			<rect x="257" y="150.6" class="st7" width="0.4" height="9.6"/>
			<rect x="262.6" y="150.6" class="st7" width="0.4" height="9.6"/>
		</g>
		<rect x="252.3" y="155.2" class="st7" width="15" height="0.4"/>
	</g>
	<polygon class="st5" points="194.6,110.5 272.1,110.5 275.7,119.7 190.9,119.7 	"/>
	<rect x="199.3" y="123.5" class="st7" width="15" height="9.6"/>
	<rect x="199.9" y="124.1" class="st10" width="13.9" height="8.6"/>
	<polygon class="st9" points="209.4,124.1 206.3,124.1 204.7,124.1 211.9,132.7 213.8,132.7 213.8,129.3 	"/>
	<polygon class="st9" points="203.2,124.1 200.5,124.1 207.8,132.7 210.7,132.7 	"/>
	<g>
		<g>
			<rect x="204" y="123.5" class="st7" width="0.4" height="9.6"/>
			<rect x="209.6" y="123.5" class="st7" width="0.4" height="9.6"/>
		</g>
		<rect x="199.3" y="128.1" class="st7" width="15" height="0.4"/>
	</g>
	<rect x="252.3" y="123.5" class="st7" width="15" height="9.6"/>
	<rect x="252.9" y="124.1" class="st10" width="13.9" height="8.6"/>
	<polygon class="st9" points="262.4,124.1 259.3,124.1 257.7,124.1 265,132.7 266.8,132.7 266.8,129.3 	"/>
	<polygon class="st9" points="256.3,124.1 253.5,124.1 260.8,132.7 263.7,132.7 	"/>
	<g>
		<g>
			<rect x="257" y="123.6" class="st7" width="0.4" height="9.6"/>
			<rect x="262.6" y="123.6" class="st7" width="0.4" height="9.6"/>
		</g>
		<rect x="252.3" y="128.1" class="st7" width="15" height="0.4"/>
	</g>
	<rect x="225.4" y="123.3" class="st7" width="15" height="9.6"/>
	<rect x="226" y="123.8" class="st10" width="13.9" height="8.6"/>
	<polygon class="st9" points="235.5,123.8 232.4,123.8 230.8,123.8 238,132.5 239.9,132.5 239.9,129.1 	"/>
	<polygon class="st9" points="229.3,123.8 226.6,123.8 233.9,132.5 236.8,132.5 	"/>
	<g>
		<g>
			<rect x="230.1" y="123.3" class="st7" width="0.4" height="9.6"/>
			<rect x="235.7" y="123.3" class="st7" width="0.4" height="9.6"/>
		</g>
		<rect x="225.4" y="127.9" class="st7" width="15" height="0.4"/>
	</g>
	<rect x="221.7" y="136.3" class="st11" width="23.1" height="6.6"/>
	<text transform="matrix(1 0 0 1 225.0635 141.0267)" class="st12" style="font-family:'Articulate-Bold'; font-size:3.9011px;">COLLEGE</text>
</g>
<g>
	<polygon class="st18" points="130.7,18.9 130.7,-11.6 140,-11.6 149.3,-11.6 149.3,18.9 140,12.9 	"/>
	<polygon class="st1" points="138.3,-0.7 139.7,-3.7 141.2,-0.7 144.4,-0.3 142.1,2 142.6,5.2 139.7,3.7 136.8,5.3 137.4,2 
		135,-0.3 	"/>
</g>
<path class="st19" d="M9.8,0.2C9.5,0,9.1,0,8.9,0.2L3.5,5.6L1.1,3.3c-0.3-0.3-0.7-0.3-1,0s-0.3,0.7,0,1L3,7.1
	c0.1,0.1,0.3,0.2,0.5,0.2c0.2,0,0.3-0.1,0.5-0.2l5.9-5.9C10.1,0.9,10.1,0.5,9.8,0.2z"/>
</svg>
