<?xml version="1.0" encoding="utf-8"?>
<!-- Generator: Adobe Illustrator 19.1.0, SVG Export Plug-In . SVG Version: 6.00 Build 0)  -->
<svg version="1.1" id="Layer_1" xmlns="http://www.w3.org/2000/svg" xmlns:xlink="http://www.w3.org/1999/xlink" x="0px" y="0px"
	 viewBox="0 0 19 31.3" style="enable-background:new 0 0 19 31.3;" xml:space="preserve">
<style type="text/css">
	.st0{fill:#51B967;}
	.st1{fill:#FFFFFF;}
	.st2{opacity:0.8;}
	.st3{opacity:0.7;fill:#E6E6E6;}
	.st4{fill:none;stroke:#D57C1C;stroke-width:0.8165;stroke-miterlimit:10;}
	.st5{fill:none;stroke:#414042;stroke-width:0.8165;stroke-miterlimit:10;}
	.st6{fill:none;stroke:#F68E21;stroke-width:0.8165;stroke-miterlimit:10;}
	.st7{fill:none;stroke:#895E3C;stroke-width:0.8165;stroke-miterlimit:10;}
	.st8{fill:#FFFFFF;stroke:#99D7DE;stroke-width:0.8165;stroke-miterlimit:10;}
	.st9{opacity:0.15;fill:#FFFFFF;}
	.st10{fill:none;stroke:#99D7DE;stroke-width:0.8165;stroke-miterlimit:10;}
	.st11{fill:#FFFFFF;stroke:#414042;stroke-width:0.8165;stroke-miterlimit:10;}
	.st12{fill:#414042;}
	.st13{fill:none;stroke:#414042;stroke-width:0.8277;stroke-miterlimit:10;}
	.st14{fill:none;stroke:#414042;stroke-width:0.828;stroke-miterlimit:10;}
	.st15{fill:none;stroke:#D57C1C;stroke-miterlimit:10;}
	.st16{fill:none;stroke:#414042;stroke-miterlimit:10;}
	.st17{fill:none;stroke:#F68E21;stroke-width:0.6514;stroke-miterlimit:10;}
	.st18{fill:#EE4538;}
</style>
<g>
	<circle class="st0" cx="788.1" cy="1835.1" r="18"/>
	<path class="st1" d="M798.5,1827.7c-0.6-0.6-1.5-0.6-2.1,0l-11.7,11.7l-5-5c-0.6-0.6-1.5-0.6-2.1,0c-0.6,0.6-0.6,1.5,0,2.1l6,6
		c0.3,0.3,0.7,0.4,1,0.4c0.4,0,0.7-0.1,1-0.4l12.7-12.7C799.1,1829.2,799.1,1828.3,798.5,1827.7z"/>
</g>
<g class="st2">
	<path class="st3" d="M-407-160.4L-407-160.4L-407-160.4c0-3.5-3.6-6.3-8-6.3c-1,0-1.9,0.1-2.7,0.4c-0.4-3.2-3.8-5.6-8-5.6
		c-4.2,0-7.7,2.5-8,5.8c-1-0.3-2-0.5-3.2-0.5c-4.4,0-8,2.8-8,6.3c-4.4,0-8,2.8-8,6.3c0,3.5,3.6,6.3,8,6.3c1.8,0,3.4-0.4,4.7-1.2
		c0.5,3.1,3.9,5.4,7.9,5.4c3.7,0,6.9-2,7.8-4.7c1.4,1.8,3.9,2.9,6.8,2.9c3,0,5.6-1.3,7-3.2c1.1,0.5,2.4,0.7,3.7,0.7
		c4.4,0,8-2.8,8-6.3C-399-157.6-402.6-160.4-407-160.4z"/>
	<g>
		<rect x="-441.5" y="-118.4" class="st4" width="74.5" height="18.4"/>
		<polygon class="st5" points="-442.9,-127.1 -365.3,-127.1 -361.8,-117.9 -446.6,-117.9 		"/>
		<rect x="-420.1" y="-137.8" class="st6" width="31.9" height="37.8"/>
		<rect x="-413.6" y="-120.5" class="st7" width="18.7" height="20.5"/>
		<rect x="-412.6" y="-119.4" class="st8" width="16.7" height="19.4"/>
		<polygon class="st9" points="-405.9,-119.4 -412.6,-119.4 -412.6,-115.4 -399.6,-99.9 -395.8,-99.9 -395.8,-107.5 		"/>
		<rect x="-404.6" y="-120.5" class="st7" width="0.8" height="20.5"/>
		<rect x="-437.9" y="-114" class="st7" width="15" height="9.6"/>
		<rect x="-437.3" y="-113.5" class="st10" width="13.9" height="8.6"/>
		<polygon class="st9" points="-427.9,-113.5 -430.9,-113.5 -432.6,-113.5 -425.3,-104.9 -423.4,-104.9 -423.4,-108.2 		"/>
		<polygon class="st9" points="-434,-113.5 -436.7,-113.5 -429.4,-104.9 -426.5,-104.9 		"/>
		<g>
			<g>
				<rect x="-433.2" y="-114" class="st7" width="0.4" height="9.6"/>
				<rect x="-427.7" y="-114" class="st7" width="0.4" height="9.6"/>
			</g>
			<rect x="-437.9" y="-109.4" class="st7" width="15" height="0.4"/>
		</g>
		<rect x="-385.2" y="-114" class="st7" width="15" height="9.6"/>
		<rect x="-384.6" y="-113.5" class="st10" width="13.9" height="8.6"/>
		<polygon class="st9" points="-375.1,-113.5 -378.2,-113.5 -379.8,-113.5 -372.5,-104.9 -370.6,-104.9 -370.6,-108.2 		"/>
		<polygon class="st9" points="-381.2,-113.5 -383.9,-113.5 -376.7,-104.9 -373.8,-104.9 		"/>
		<g>
			<g>
				<rect x="-380.4" y="-114" class="st7" width="0.4" height="9.6"/>
				<rect x="-374.9" y="-114" class="st7" width="0.4" height="9.6"/>
			</g>
			<rect x="-385.2" y="-109.4" class="st7" width="15" height="0.4"/>
		</g>
		<polygon class="st6" points="-388.3,-124.1 -420.1,-124.1 -420.1,-143 -404.6,-154.4 -388.3,-143 		"/>
		<path class="st11" d="M-404.2-144.5c-3.6,0-6.6,3-6.6,6.6c0,3.6,3,6.6,6.6,6.6s6.6-3,6.6-6.6
			C-397.6-141.5-400.5-144.5-404.2-144.5z"/>
		<polygon class="st5" points="-423.2,-137.9 -425.9,-142.7 -404.7,-157.8 -383.5,-143.6 -386.1,-138.7 -404.6,-150.9 		"/>
		<g>
			<g>
				<path class="st12" d="M-400.9-139.9l-2.8,1.6c-0.1-0.1-0.3-0.1-0.4-0.1c-0.2,0-0.3,0-0.4,0.1l-2.8-1.6c-0.3-0.1-0.6-0.1-0.7,0.2
					c-0.1,0.3-0.1,0.6,0.2,0.7l2.9,1.6c0.1,0.4,0.5,0.7,0.9,0.7c0.4,0,0.8-0.3,0.9-0.7l2.9-1.6c0.3-0.1,0.4-0.5,0.2-0.7
					C-400.3-139.9-400.7-140-400.9-139.9z"/>
			</g>
		</g>
		<rect x="-415.7" y="-128.3" class="st11" width="23.1" height="6.6"/>
		<text transform="matrix(1 0 0 1 -411.8679 -123.7803)" class="st12" style="font-family:'Articulate-Bold'; font-size:3.9011px;">SCHOOL</text>
	</g>
</g>
<g>
	<path class="st3" d="M-409.6-18.6L-409.6-18.6L-409.6-18.6c0-3.7-3.8-6.7-8.5-6.7c-1,0-2,0.1-2.9,0.4c-0.4-3.4-4.1-6-8.5-6
		c-4.5,0-8.1,2.7-8.5,6.1c-1-0.3-2.2-0.5-3.4-0.5c-4.7,0-8.5,3-8.5,6.7c-4.7,0-8.5,3-8.5,6.7c0,3.7,3.8,6.7,8.5,6.7
		c1.9,0,3.6-0.5,5-1.3c0.6,3.3,4.1,5.8,8.5,5.8c4,0,7.3-2.1,8.3-5c1.5,1.9,4.2,3.1,7.2,3.1c3.2,0,5.9-1.4,7.4-3.4
		c1.2,0.5,2.5,0.8,4,0.8c4.7,0,8.5-3,8.5-6.7C-401.1-15.6-404.9-18.6-409.6-18.6z"/>
	<rect x="-448.3" y="14.1" class="st4" width="74.5" height="18.4"/>
	<polygon class="st6" points="-397.2,5.4 -424.7,5.4 -424.7,-10.9 -411.4,-20.7 -397.2,-10.9 	"/>
	<rect x="-424.7" y="-6" class="st6" width="27.5" height="11.4"/>
	<path class="st11" d="M-411-12.2c-3.1,0-5.7,2.6-5.7,5.7s2.6,5.7,5.7,5.7s5.7-2.6,5.7-5.7C-405.3-9.6-407.8-12.2-411-12.2z"/>
	<polygon class="st5" points="-427.4,-6.5 -429.8,-10.6 -411.4,-23.6 -393.2,-11.4 -395.4,-7.2 -411.3,-17.7 	"/>
	<g>
		<g>
			<path class="st12" d="M-408.2-8.2l-2.4,1.3c-0.1-0.1-0.2-0.1-0.4-0.1c-0.1,0-0.3,0-0.4,0.1l-2.4-1.3c-0.2-0.1-0.5,0-0.6,0.2
				c-0.1,0.2,0,0.5,0.2,0.6l2.5,1.4c0.1,0.4,0.4,0.6,0.8,0.6c0.4,0,0.7-0.3,0.8-0.6l2.5-1.4c0.2-0.1,0.3-0.4,0.2-0.6
				C-407.7-8.2-408-8.3-408.2-8.2z"/>
		</g>
	</g>
	<rect x="-448.3" y="41.2" class="st4" width="74.5" height="18.4"/>
	<polygon class="st5" points="-449.7,32.5 -372.2,32.5 -368.7,41.7 -453.5,41.7 	"/>
	<rect x="-427" y="14.1" class="st6" width="31.9" height="45.5"/>
	<rect x="-427" y="34.6" class="st6" width="31.9" height="25.1"/>
	<rect x="-420.4" y="39.1" class="st7" width="18.7" height="20.5"/>
	<rect x="-419.4" y="40.2" class="st8" width="16.7" height="19.4"/>
	<polygon class="st9" points="-412.8,40.2 -419.4,40.2 -419.4,44.2 -406.5,59.7 -402.7,59.7 -402.7,52.1 	"/>
	<rect x="-411.4" y="39.1" class="st7" width="0.8" height="20.5"/>
	<rect x="-444.8" y="45.6" class="st7" width="15" height="9.6"/>
	<rect x="-444.2" y="46.1" class="st10" width="13.9" height="8.6"/>
	<polygon class="st9" points="-434.7,46.1 -437.8,46.1 -439.4,46.1 -432.1,54.7 -430.3,54.7 -430.3,51.4 	"/>
	<polygon class="st9" points="-440.9,46.1 -443.6,46.1 -436.3,54.7 -433.4,54.7 	"/>
	<g>
		<g>
			<rect x="-440.1" y="45.6" class="st7" width="0.4" height="9.6"/>
			<rect x="-434.5" y="45.6" class="st7" width="0.4" height="9.6"/>
		</g>
		<rect x="-444.8" y="50.2" class="st7" width="15" height="0.4"/>
	</g>
	<rect x="-392" y="45.6" class="st7" width="15" height="9.6"/>
	<rect x="-391.4" y="46.1" class="st10" width="13.9" height="8.6"/>
	<polygon class="st9" points="-382,46.1 -385,46.1 -386.7,46.1 -379.4,54.7 -377.5,54.7 -377.5,51.4 	"/>
	<polygon class="st9" points="-388.1,46.1 -390.8,46.1 -383.5,54.7 -380.6,54.7 	"/>
	<g>
		<g>
			<rect x="-387.3" y="45.6" class="st7" width="0.4" height="9.6"/>
			<rect x="-381.8" y="45.6" class="st7" width="0.4" height="9.6"/>
		</g>
		<rect x="-392" y="50.2" class="st7" width="15" height="0.4"/>
	</g>
	<polygon class="st5" points="-449.7,5.4 -372.2,5.4 -368.7,14.6 -453.5,14.6 	"/>
	<rect x="-445" y="18.5" class="st7" width="15" height="9.6"/>
	<rect x="-444.5" y="19" class="st10" width="13.9" height="8.6"/>
	<polygon class="st9" points="-435,19 -438.1,19 -439.7,19 -432.4,27.6 -430.5,27.6 -430.5,24.3 	"/>
	<polygon class="st9" points="-441.1,19 -443.8,19 -436.6,27.6 -433.7,27.6 	"/>
	<g>
		<g>
			<rect x="-440.3" y="18.5" class="st7" width="0.4" height="9.6"/>
			<rect x="-434.8" y="18.5" class="st7" width="0.4" height="9.6"/>
		</g>
		<rect x="-445.1" y="23.1" class="st7" width="15" height="0.4"/>
	</g>
	<rect x="-392" y="18.5" class="st7" width="15" height="9.6"/>
	<rect x="-391.4" y="19" class="st10" width="13.9" height="8.6"/>
	<polygon class="st9" points="-382,19 -385,19 -386.7,19 -379.4,27.6 -377.5,27.6 -377.5,24.3 	"/>
	<polygon class="st9" points="-388.1,19 -390.8,19 -383.5,27.6 -380.6,27.6 	"/>
	<g>
		<g>
			<rect x="-387.3" y="18.5" class="st7" width="0.4" height="9.6"/>
			<rect x="-381.8" y="18.5" class="st7" width="0.4" height="9.6"/>
		</g>
		<rect x="-392" y="23.1" class="st7" width="15" height="0.4"/>
	</g>
	<rect x="-418.9" y="18.3" class="st7" width="15" height="9.6"/>
	<rect x="-418.4" y="18.8" class="st10" width="13.9" height="8.6"/>
	<polygon class="st9" points="-408.9,18.8 -412,18.8 -413.6,18.8 -406.3,27.4 -404.4,27.4 -404.4,24.1 	"/>
	<polygon class="st9" points="-415,18.8 -417.7,18.8 -410.5,27.4 -407.6,27.4 	"/>
	<g>
		<g>
			<rect x="-414.2" y="18.3" class="st7" width="0.4" height="9.6"/>
			<rect x="-408.7" y="18.3" class="st7" width="0.4" height="9.6"/>
		</g>
		<rect x="-419" y="22.9" class="st7" width="15" height="0.4"/>
	</g>
	<rect x="-422.6" y="31.3" class="st11" width="23.1" height="6.6"/>
	<text transform="matrix(1 0 0 1 -419.2852 35.9978)" class="st12" style="font-family:'Articulate-Bold'; font-size:3.9011px;">COLLEGE</text>
</g>
<g>
	<path class="st3" d="M-410.5,98.1L-410.5,98.1L-410.5,98.1c0-3.7-3.8-6.7-8.5-6.7c-1,0-2,0.1-2.9,0.4c-0.4-3.4-4.1-6-8.5-6
		c-4.5,0-8.1,2.7-8.5,6.1c-1-0.3-2.2-0.5-3.4-0.5c-4.7,0-8.5,3-8.5,6.7c-4.7,0-8.5,3-8.5,6.7c0,3.7,3.8,6.7,8.5,6.7
		c1.9,0,3.6-0.5,5-1.3c0.6,3.3,4.1,5.8,8.5,5.8c4,0,7.3-2.1,8.3-5c1.5,1.9,4.2,3.1,7.2,3.1c3.2,0,5.9-1.4,7.4-3.4
		c1.2,0.5,2.5,0.8,4,0.8c4.7,0,8.5-3,8.5-6.7C-402,101.1-405.8,98.1-410.5,98.1z"/>
	<rect x="-449.2" y="130.9" class="st4" width="74.5" height="18.4"/>
	<polygon class="st6" points="-398.2,122.2 -425.6,122.2 -425.6,105.9 -412.3,96.1 -398.2,105.9 	"/>
	<rect x="-425.6" y="110.8" class="st6" width="27.5" height="11.4"/>
	<path class="st11" d="M-411.9,104.6c-3.1,0-5.7,2.6-5.7,5.7c0,3.1,2.6,5.7,5.7,5.7s5.7-2.6,5.7-5.7
		C-406.2,107.1-408.7,104.6-411.9,104.6z"/>
	<polygon class="st5" points="-428.3,110.3 -430.7,106.1 -412.3,93.1 -394.1,105.3 -396.3,109.6 -412.2,99 	"/>
	<g>
		<g>
			<path class="st12" d="M-409.1,108.6l-2.4,1.3c-0.1-0.1-0.2-0.1-0.4-0.1c-0.1,0-0.3,0-0.4,0.1l-2.4-1.3c-0.2-0.1-0.5,0-0.6,0.2
				c-0.1,0.2,0,0.5,0.2,0.6l2.5,1.4c0.1,0.4,0.4,0.6,0.8,0.6c0.4,0,0.7-0.3,0.8-0.6l2.5-1.4c0.2-0.1,0.3-0.4,0.2-0.6
				C-408.6,108.5-408.9,108.5-409.1,108.6z"/>
		</g>
	</g>
	<rect x="-449.2" y="157.9" class="st4" width="74.5" height="18.4"/>
	<polygon class="st5" points="-450.7,149.2 -373.1,149.2 -369.6,158.5 -454.4,158.5 	"/>
	<rect x="-427.9" y="130.9" class="st6" width="31.9" height="45.5"/>
	<rect x="-427.9" y="151.3" class="st6" width="31.9" height="25.1"/>
	<rect x="-421.3" y="155.9" class="st7" width="18.7" height="20.5"/>
	<rect x="-420.3" y="157" class="st8" width="16.7" height="19.4"/>
	<polygon class="st9" points="-413.7,157 -420.3,157 -420.3,160.9 -407.4,176.4 -403.6,176.4 -403.6,168.9 	"/>
	<rect x="-412.4" y="155.9" class="st7" width="0.8" height="20.5"/>
	<rect x="-445.7" y="162.3" class="st7" width="15" height="9.6"/>
	<rect x="-445.1" y="162.8" class="st10" width="13.9" height="8.6"/>
	<polygon class="st9" points="-435.6,162.8 -438.7,162.8 -440.3,162.8 -433.1,171.5 -431.2,171.5 -431.2,168.1 	"/>
	<polygon class="st9" points="-441.8,162.8 -444.5,162.8 -437.2,171.5 -434.3,171.5 	"/>
	<g>
		<g>
			<rect x="-441" y="162.3" class="st7" width="0.4" height="9.6"/>
			<rect x="-435.4" y="162.3" class="st7" width="0.4" height="9.6"/>
		</g>
		<rect x="-445.7" y="166.9" class="st7" width="15" height="0.4"/>
	</g>
	<rect x="-392.9" y="162.3" class="st7" width="15" height="9.6"/>
	<rect x="-392.4" y="162.8" class="st10" width="13.9" height="8.6"/>
	<polygon class="st9" points="-382.9,162.8 -385.9,162.8 -387.6,162.8 -380.3,171.5 -378.4,171.5 -378.4,168.1 	"/>
	<polygon class="st9" points="-389,162.8 -391.7,162.8 -384.4,171.5 -381.6,171.5 	"/>
	<g>
		<g>
			<rect x="-388.2" y="162.3" class="st7" width="0.4" height="9.6"/>
			<rect x="-382.7" y="162.3" class="st7" width="0.4" height="9.6"/>
		</g>
		<rect x="-393" y="166.9" class="st7" width="15" height="0.4"/>
	</g>
	<polygon class="st5" points="-450.7,122.2 -373.1,122.2 -369.6,131.4 -454.4,131.4 	"/>
	<rect x="-446" y="135.2" class="st7" width="15" height="9.6"/>
	<rect x="-445.4" y="135.8" class="st10" width="13.9" height="8.6"/>
	<polygon class="st9" points="-435.9,135.8 -439,135.8 -440.6,135.8 -433.3,144.4 -431.4,144.4 -431.4,141 	"/>
	<polygon class="st9" points="-442,135.8 -444.7,135.8 -437.5,144.4 -434.6,144.4 	"/>
	<g>
		<g>
			<rect x="-441.2" y="135.2" class="st7" width="0.4" height="9.6"/>
			<rect x="-435.7" y="135.2" class="st7" width="0.4" height="9.6"/>
		</g>
		<rect x="-446" y="139.9" class="st7" width="15" height="0.4"/>
	</g>
	<rect x="-392.9" y="135.2" class="st7" width="15" height="9.6"/>
	<rect x="-392.4" y="135.8" class="st10" width="13.9" height="8.6"/>
	<polygon class="st9" points="-382.9,135.8 -385.9,135.8 -387.6,135.8 -380.3,144.4 -378.4,144.4 -378.4,141 	"/>
	<polygon class="st9" points="-389,135.8 -391.7,135.8 -384.4,144.4 -381.6,144.4 	"/>
	<g>
		<g>
			<rect x="-388.2" y="135.3" class="st7" width="0.4" height="9.6"/>
			<rect x="-382.7" y="135.3" class="st7" width="0.4" height="9.6"/>
		</g>
		<rect x="-393" y="139.9" class="st7" width="15" height="0.4"/>
	</g>
	<rect x="-419.9" y="135" class="st7" width="15" height="9.6"/>
	<rect x="-419.3" y="135.6" class="st10" width="13.9" height="8.6"/>
	<polygon class="st9" points="-409.8,135.6 -412.9,135.6 -414.5,135.6 -407.2,144.2 -405.3,144.2 -405.3,140.8 	"/>
	<polygon class="st9" points="-415.9,135.6 -418.6,135.6 -411.4,144.2 -408.5,144.2 	"/>
	<g>
		<g>
			<rect x="-415.1" y="135" class="st7" width="0.4" height="9.6"/>
			<rect x="-409.6" y="135" class="st7" width="0.4" height="9.6"/>
		</g>
		<rect x="-419.9" y="139.6" class="st7" width="15" height="0.4"/>
	</g>
	<rect x="-423.5" y="148" class="st11" width="23.1" height="6.6"/>
	<text transform="matrix(1 0 0 1 -420.1978 152.7393)" class="st12" style="font-family:'Articulate-Bold'; font-size:3.9011px;">COLLEGE</text>
</g>
<g>
	<path class="st3" d="M-419.4,215.9L-419.4,215.9L-419.4,215.9c0-3.7-3.8-6.7-8.5-6.7c-1,0-2,0.1-2.9,0.4c-0.4-3.4-4.1-6-8.5-6
		c-4.5,0-8.1,2.7-8.5,6.1c-1-0.3-2.2-0.5-3.4-0.5c-4.7,0-8.5,3-8.5,6.7c-4.7,0-8.5,3-8.5,6.7c0,3.7,3.8,6.7,8.5,6.7
		c1.9,0,3.6-0.5,5-1.3c0.6,3.3,4.1,5.8,8.5,5.8c4,0,7.3-2.1,8.3-5c1.5,1.9,4.2,3.1,7.2,3.1c3.2,0,5.9-1.4,7.4-3.4
		c1.2,0.5,2.5,0.8,4,0.8c4.7,0,8.5-3,8.5-6.7C-410.9,218.9-414.7,215.9-419.4,215.9z"/>
	<g>
		<rect x="-429.5" y="263.7" class="st4" width="74.5" height="18.4"/>
		<rect x="-429.5" y="290.8" class="st4" width="74.5" height="18.4"/>
		<polygon class="st5" points="-430.9,282 -353.3,282 -353.4,291.3 -430.9,291.3 		"/>
		<rect x="-408.2" y="263.7" class="st6" width="31.9" height="45.5"/>
		<rect x="-408.2" y="284.1" class="st6" width="31.9" height="25.1"/>
		<rect x="-401.6" y="288.7" class="st7" width="18.7" height="20.5"/>
		<rect x="-400.6" y="289.8" class="st8" width="16.7" height="19.4"/>
		<polygon class="st9" points="-393.9,289.8 -400.6,289.8 -400.6,293.7 -387.7,309.2 -383.9,309.2 -383.9,301.7 		"/>
		<rect x="-392.6" y="288.7" class="st7" width="0.8" height="20.5"/>
		<rect x="-425.9" y="295.1" class="st7" width="15" height="9.6"/>
		<rect x="-425.4" y="295.6" class="st10" width="13.9" height="8.6"/>
		<polygon class="st9" points="-415.9,295.6 -418.9,295.6 -420.6,295.6 -413.3,304.3 -411.4,304.3 -411.4,300.9 		"/>
		<polygon class="st9" points="-422,295.6 -424.7,295.6 -417.4,304.3 -414.6,304.3 		"/>
		<g>
			<g>
				<rect x="-421.2" y="295.1" class="st7" width="0.4" height="9.6"/>
				<rect x="-415.7" y="295.1" class="st7" width="0.4" height="9.6"/>
			</g>
			<rect x="-426" y="299.7" class="st7" width="15" height="0.4"/>
		</g>
		<rect x="-373.2" y="295.1" class="st7" width="15" height="9.6"/>
		<rect x="-372.6" y="295.6" class="st10" width="13.9" height="8.6"/>
		<polygon class="st9" points="-363.1,295.6 -366.2,295.6 -367.8,295.6 -360.5,304.3 -358.7,304.3 -358.7,300.9 		"/>
		<polygon class="st9" points="-369.2,295.6 -372,295.6 -364.7,304.3 -361.8,304.3 		"/>
		<g>
			<g>
				<rect x="-368.5" y="295.1" class="st7" width="0.4" height="9.6"/>
				<rect x="-362.9" y="295.1" class="st7" width="0.4" height="9.6"/>
			</g>
			<rect x="-373.2" y="299.7" class="st7" width="15" height="0.4"/>
		</g>
		<polygon class="st5" points="-430.9,255 -353.3,255 -353.3,264.3 -430.9,264.2 		"/>
		<rect x="-426.2" y="268.1" class="st7" width="15" height="9.6"/>
		<rect x="-425.6" y="268.6" class="st10" width="13.9" height="8.6"/>
		<polygon class="st9" points="-416.1,268.6 -419.2,268.6 -420.8,268.6 -413.6,277.2 -411.7,277.2 -411.7,273.8 		"/>
		<polygon class="st9" points="-422.3,268.6 -425,268.6 -417.7,277.2 -414.8,277.2 		"/>
		<g>
			<g>
				<rect x="-421.5" y="268.1" class="st7" width="0.4" height="9.6"/>
				<rect x="-415.9" y="268.1" class="st7" width="0.4" height="9.6"/>
			</g>
			<rect x="-426.2" y="272.7" class="st7" width="15" height="0.4"/>
		</g>
		<rect x="-373.2" y="268.1" class="st7" width="15" height="9.6"/>
		<rect x="-372.6" y="268.6" class="st10" width="13.9" height="8.6"/>
		<polygon class="st9" points="-363.1,268.6 -366.2,268.6 -367.8,268.6 -360.5,277.2 -358.7,277.2 -358.7,273.8 		"/>
		<polygon class="st9" points="-369.2,268.6 -372,268.6 -364.7,277.2 -361.8,277.2 		"/>
		<g>
			<g>
				<rect x="-368.5" y="268.1" class="st7" width="0.4" height="9.6"/>
				<rect x="-362.9" y="268.1" class="st7" width="0.4" height="9.6"/>
			</g>
			<rect x="-373.2" y="272.7" class="st7" width="15" height="0.4"/>
		</g>
		<rect x="-400.1" y="267.8" class="st7" width="15" height="9.6"/>
		<rect x="-399.5" y="268.4" class="st10" width="13.9" height="8.6"/>
		<polygon class="st9" points="-390,268.4 -393.1,268.4 -394.7,268.4 -387.5,277 -385.6,277 -385.6,273.6 		"/>
		<polygon class="st9" points="-396.2,268.4 -398.9,268.4 -391.6,277 -388.7,277 		"/>
		<g>
			<g>
				<rect x="-395.4" y="267.8" class="st7" width="0.4" height="9.6"/>
				<rect x="-389.8" y="267.8" class="st7" width="0.4" height="9.6"/>
			</g>
			<rect x="-400.1" y="272.5" class="st7" width="15" height="0.4"/>
		</g>
		<rect x="-429.5" y="236.6" class="st4" width="74.5" height="18.4"/>
		<rect x="-408.2" y="236.6" class="st6" width="31.9" height="45.5"/>
		<polygon class="st13" points="-430.9,227.6 -353.3,227.6 -353.3,237.2 -430.9,237.1 		"/>
		<rect x="-426.2" y="240.9" class="st7" width="15" height="9.6"/>
		<rect x="-425.6" y="241.5" class="st10" width="13.9" height="8.6"/>
		<polygon class="st9" points="-416.1,241.5 -419.2,241.5 -420.8,241.5 -413.6,250.1 -411.7,250.1 -411.7,246.7 		"/>
		<polygon class="st9" points="-422.3,241.5 -425,241.5 -417.7,250.1 -414.8,250.1 		"/>
		<g>
			<g>
				<rect x="-421.5" y="240.9" class="st7" width="0.4" height="9.6"/>
				<rect x="-415.9" y="240.9" class="st7" width="0.4" height="9.6"/>
			</g>
			<rect x="-426.2" y="245.5" class="st7" width="15" height="0.4"/>
		</g>
		<rect x="-373.2" y="240.9" class="st7" width="15" height="9.6"/>
		<rect x="-372.6" y="241.5" class="st10" width="13.9" height="8.6"/>
		<polygon class="st9" points="-363.1,241.5 -366.2,241.5 -367.8,241.5 -360.5,250.1 -358.7,250.1 -358.7,246.7 		"/>
		<polygon class="st9" points="-369.2,241.5 -372,241.5 -364.7,250.1 -361.8,250.1 		"/>
		<g>
			<g>
				<rect x="-368.5" y="241" class="st7" width="0.4" height="9.6"/>
				<rect x="-362.9" y="241" class="st7" width="0.4" height="9.6"/>
			</g>
			<rect x="-373.2" y="245.6" class="st7" width="15" height="0.4"/>
		</g>
		<rect x="-400.1" y="240.7" class="st7" width="15" height="9.6"/>
		<rect x="-399.5" y="241.2" class="st10" width="13.9" height="8.6"/>
		<polygon class="st9" points="-390,241.2 -393.1,241.2 -394.7,241.2 -387.5,249.9 -385.6,249.9 -385.6,246.5 		"/>
		<polygon class="st9" points="-396.2,241.2 -398.9,241.2 -391.6,249.9 -388.7,249.9 		"/>
		<g>
			<g>
				<rect x="-395.4" y="240.7" class="st7" width="0.4" height="9.6"/>
				<rect x="-389.8" y="240.7" class="st7" width="0.4" height="9.6"/>
			</g>
			<rect x="-400.1" y="245.3" class="st7" width="15" height="0.4"/>
		</g>
		<rect x="-429.5" y="209.3" class="st4" width="74.5" height="18.4"/>
		<rect x="-408.2" y="209.3" class="st6" width="31.9" height="45.5"/>
		<polygon class="st14" points="-430.9,205.1 -353.3,205.1 -353.3,209.9 -430.9,209.9 		"/>
		<rect x="-426.2" y="213.7" class="st7" width="15" height="9.6"/>
		<rect x="-425.6" y="214.2" class="st10" width="13.9" height="8.6"/>
		<polygon class="st9" points="-416.1,214.2 -419.2,214.2 -420.8,214.2 -413.6,222.8 -411.7,222.8 -411.7,219.5 		"/>
		<polygon class="st9" points="-422.3,214.2 -425,214.2 -417.7,222.8 -414.8,222.8 		"/>
		<g>
			<g>
				<rect x="-421.5" y="213.7" class="st7" width="0.4" height="9.6"/>
				<rect x="-415.9" y="213.7" class="st7" width="0.4" height="9.6"/>
			</g>
			<rect x="-426.2" y="218.3" class="st7" width="15" height="0.4"/>
		</g>
		<rect x="-373.2" y="213.7" class="st7" width="15" height="9.6"/>
		<rect x="-372.6" y="214.2" class="st10" width="13.9" height="8.6"/>
		<polygon class="st9" points="-363.1,214.2 -366.2,214.2 -367.8,214.2 -360.5,222.8 -358.7,222.8 -358.7,219.5 		"/>
		<polygon class="st9" points="-369.2,214.2 -372,214.2 -364.7,222.8 -361.8,222.8 		"/>
		<g>
			<g>
				<rect x="-368.5" y="213.7" class="st7" width="0.4" height="9.6"/>
				<rect x="-362.9" y="213.7" class="st7" width="0.4" height="9.6"/>
			</g>
			<rect x="-373.2" y="218.3" class="st7" width="15" height="0.4"/>
		</g>
		<rect x="-400.1" y="213.5" class="st7" width="15" height="9.6"/>
		<rect x="-399.5" y="214" class="st10" width="13.9" height="8.6"/>
		<polygon class="st9" points="-390,214 -393.1,214 -394.7,214 -387.5,222.6 -385.6,222.6 -385.6,219.3 		"/>
		<polygon class="st9" points="-396.2,214 -398.9,214 -391.6,222.6 -388.7,222.6 		"/>
		<g>
			<g>
				<rect x="-395.4" y="213.5" class="st7" width="0.4" height="9.6"/>
				<rect x="-389.8" y="213.5" class="st7" width="0.4" height="9.6"/>
			</g>
			<rect x="-400.1" y="218.1" class="st7" width="15" height="0.4"/>
		</g>
		<rect x="-403.8" y="280.9" class="st11" width="23.1" height="6.6"/>
		<text transform="matrix(1 0 0 1 -400.4351 285.5447)" class="st12" style="font-family:'Articulate-Bold'; font-size:3.9011px;">COLLEGE</text>
		<g>
			<path class="st11" d="M-392.1,226.7c-3.1,0-5.7,2.6-5.7,5.7s2.6,5.7,5.7,5.7s5.7-2.6,5.7-5.7C-386.4,229.2-389,226.7-392.1,226.7
				z"/>
			<g>
				<g>
					<path class="st12" d="M-389.3,230.7l-2.4,1.3c-0.1-0.1-0.2-0.1-0.4-0.1c-0.1,0-0.3,0-0.4,0.1l-2.4-1.3c-0.2-0.1-0.5,0-0.6,0.2
						c-0.1,0.2,0,0.5,0.2,0.6l2.5,1.4c0.1,0.4,0.4,0.6,0.8,0.6c0.4,0,0.7-0.3,0.8-0.6l2.5-1.4c0.2-0.1,0.3-0.4,0.2-0.6
						C-388.8,230.6-389.1,230.5-389.3,230.7z"/>
				</g>
			</g>
		</g>
	</g>
</g>
<g>
	<path class="st3" d="M-542.3-138.7L-542.3-138.7L-542.3-138.7c0-3.5-3.6-6.3-8-6.3c-1,0-1.9,0.1-2.7,0.4c-0.4-3.2-3.8-5.6-8-5.6
		c-4.2,0-7.7,2.5-8,5.8c-1-0.3-2-0.5-3.2-0.5c-4.4,0-8,2.8-8,6.3c-4.4,0-8,2.8-8,6.3c0,3.5,3.6,6.3,8,6.3c1.8,0,3.4-0.4,4.7-1.2
		c0.5,3.1,3.9,5.4,7.9,5.4c3.7,0,6.9-2,7.8-4.7c1.4,1.8,3.9,2.9,6.8,2.9c3,0,5.6-1.3,7-3.2c1.1,0.5,2.4,0.7,3.7,0.7
		c4.4,0,8-2.8,8-6.3C-534.3-135.8-537.9-138.7-542.3-138.7z"/>
	<rect x="-564.9" y="-111.7" class="st15" width="50.7" height="18.4"/>
	<polygon class="st16" points="-564.8,-120.4 -514.2,-120.4 -511.9,-111.2 -567.2,-111.2 	"/>
	<rect x="-555.5" y="-117.3" class="st17" width="31.9" height="24.1"/>
	<rect x="-548.9" y="-113.8" class="st7" width="18.7" height="20.5"/>
	<rect x="-547.9" y="-112.7" class="st8" width="16.7" height="19.4"/>
	<polygon class="st9" points="-541.3,-112.7 -547.9,-112.7 -547.9,-108.7 -535,-93.3 -531.2,-93.3 -531.2,-100.8 	"/>
	<rect x="-539.9" y="-113.8" class="st7" width="0.8" height="20.5"/>
	<polygon class="st6" points="-523.6,-97.1 -555.4,-97.1 -555.4,-124.7 -540,-136 -523.6,-124.7 	"/>
	<polygon class="st5" points="-558.2,-120.4 -560.9,-125.2 -540,-139.6 -518.9,-125.4 -521.5,-120.5 -539.9,-132.7 	"/>
	<rect x="-551.1" y="-121.6" class="st11" width="23.1" height="6.6"/>
	<text transform="matrix(1 0 0 1 -547.21 -117.0959)" class="st12" style="font-family:'Articulate-Bold'; font-size:3.9011px;">SCHOOL</text>
</g>
<g class="st2">
	<path class="st3" d="M225.9-9.6L225.9-9.6L225.9-9.6c0-3.5-3.6-6.3-8-6.3c-1,0-1.9,0.1-2.7,0.4c-0.4-3.2-3.8-5.6-8-5.6
		c-4.2,0-7.7,2.5-8,5.8c-1-0.3-2-0.5-3.2-0.5c-4.4,0-8,2.8-8,6.3c-4.4,0-8,2.8-8,6.3c0,3.5,3.6,6.3,8,6.3c1.8,0,3.4-0.4,4.7-1.2
		c0.5,3.1,3.9,5.4,7.9,5.4c3.7,0,6.9-2,7.8-4.7c1.4,1.8,3.9,2.9,6.8,2.9c3,0,5.6-1.3,7-3.2c1.1,0.5,2.4,0.7,3.7,0.7
		c4.4,0,8-2.8,8-6.3C233.9-6.8,230.3-9.6,225.9-9.6z"/>
	<g>
		<rect x="191.4" y="32.5" class="st4" width="74.5" height="18.4"/>
		<polygon class="st5" points="190,23.7 267.5,23.7 271.1,33 186.3,33 		"/>
		<rect x="212.7" y="13" class="st6" width="31.9" height="37.8"/>
		<rect x="219.3" y="30.4" class="st7" width="18.7" height="20.5"/>
		<rect x="220.3" y="31.5" class="st8" width="16.7" height="19.4"/>
		<polygon class="st9" points="226.9,31.5 220.3,31.5 220.3,35.4 233.2,50.9 237,50.9 237,43.4 		"/>
		<rect x="228.3" y="30.4" class="st7" width="0.8" height="20.5"/>
		<rect x="194.9" y="36.8" class="st7" width="15" height="9.6"/>
		<rect x="195.5" y="37.3" class="st10" width="13.9" height="8.6"/>
		<polygon class="st9" points="205,37.3 201.9,37.3 200.3,37.3 207.6,46 209.5,46 209.5,42.6 		"/>
		<polygon class="st9" points="198.9,37.3 196.2,37.3 203.4,46 206.3,46 		"/>
		<g>
			<g>
				<rect x="199.7" y="36.8" class="st7" width="0.4" height="9.6"/>
				<rect x="205.2" y="36.8" class="st7" width="0.4" height="9.6"/>
			</g>
			<rect x="194.9" y="41.4" class="st7" width="15" height="0.4"/>
		</g>
		<rect x="247.7" y="36.8" class="st7" width="15" height="9.6"/>
		<rect x="248.3" y="37.3" class="st10" width="13.9" height="8.6"/>
		<polygon class="st9" points="257.7,37.3 254.7,37.3 253.1,37.3 260.3,46 262.2,46 262.2,42.6 		"/>
		<polygon class="st9" points="251.6,37.3 248.9,37.3 256.2,46 259.1,46 		"/>
		<g>
			<g>
				<rect x="252.4" y="36.8" class="st7" width="0.4" height="9.6"/>
				<rect x="258" y="36.8" class="st7" width="0.4" height="9.6"/>
			</g>
			<rect x="247.7" y="41.4" class="st7" width="15" height="0.4"/>
		</g>
		<polygon class="st6" points="244.6,26.7 212.8,26.7 212.8,7.8 228.2,-3.5 244.6,7.8 		"/>
		<path class="st11" d="M228.7,6.3c-3.6,0-6.6,3-6.6,6.6s3,6.6,6.6,6.6c3.6,0,6.6-3,6.6-6.6C235.3,9.3,232.3,6.3,228.7,6.3z"/>
		<polygon class="st5" points="209.6,12.9 206.9,8.1 228.2,-7 249.3,7.2 246.7,12.1 228.3,-0.1 		"/>
		<g>
			<g>
				<path class="st12" d="M231.9,11l-2.8,1.6c-0.1-0.1-0.3-0.1-0.4-0.1c-0.2,0-0.3,0-0.4,0.1l-2.8-1.6c-0.3-0.1-0.6-0.1-0.7,0.2
					c-0.1,0.3-0.1,0.6,0.2,0.7l2.9,1.6c0.1,0.4,0.5,0.7,0.9,0.7c0.4,0,0.8-0.3,0.9-0.7l2.9-1.6c0.3-0.1,0.4-0.5,0.2-0.7
					C232.5,10.9,232.2,10.8,231.9,11z"/>
			</g>
		</g>
		<rect x="217.1" y="22.6" class="st11" width="23.1" height="6.6"/>
		<text transform="matrix(1 0 0 1 220.9873 27.0505)" class="st12" style="font-family:'Articulate-Bold'; font-size:3.9011px;">SCHOOL</text>
	</g>
</g>
<g>
	<path class="st3" d="M239.2,98.4L239.2,98.4L239.2,98.4c0-3.7-3.8-6.7-8.5-6.7c-1,0-2,0.1-2.9,0.4c-0.4-3.4-4.1-6-8.5-6
		c-4.5,0-8.1,2.7-8.5,6.1c-1-0.3-2.2-0.5-3.4-0.5c-4.7,0-8.5,3-8.5,6.7c-4.7,0-8.5,3-8.5,6.7c0,3.7,3.8,6.7,8.5,6.7
		c1.9,0,3.6-0.5,5-1.3c0.6,3.3,4.1,5.8,8.5,5.8c4,0,7.3-2.1,8.3-5c1.5,1.9,4.2,3.1,7.2,3.1c3.2,0,5.9-1.4,7.4-3.4
		c1.2,0.5,2.5,0.8,4,0.8c4.7,0,8.5-3,8.5-6.7C247.8,101.4,243.9,98.4,239.2,98.4z"/>
	<rect x="200.5" y="131.1" class="st4" width="74.5" height="18.4"/>
	<polygon class="st6" points="251.6,122.4 224.1,122.4 224.1,106.1 237.5,96.3 251.6,106.1 	"/>
	<rect x="224.1" y="111" class="st6" width="27.5" height="11.4"/>
	<path class="st11" d="M237.9,104.8c-3.1,0-5.7,2.6-5.7,5.7s2.6,5.7,5.7,5.7c3.1,0,5.7-2.6,5.7-5.7
		C243.6,107.4,241,104.8,237.9,104.8z"/>
	<polygon class="st5" points="221.4,110.5 219.1,106.4 237.4,93.4 255.7,105.6 253.5,109.8 237.5,99.3 	"/>
	<g>
		<g>
			<path class="st12" d="M240.7,108.8l-2.4,1.3c-0.1-0.1-0.2-0.1-0.4-0.1c-0.1,0-0.3,0-0.4,0.1l-2.4-1.3c-0.2-0.1-0.5,0-0.6,0.2
				c-0.1,0.2,0,0.5,0.2,0.6l2.5,1.4c0.1,0.4,0.4,0.6,0.8,0.6c0.4,0,0.7-0.3,0.8-0.6l2.5-1.4c0.2-0.1,0.3-0.4,0.2-0.6
				C241.2,108.8,240.9,108.7,240.7,108.8z"/>
		</g>
	</g>
	<rect x="200.5" y="158.2" class="st4" width="74.5" height="18.4"/>
	<polygon class="st5" points="199.1,149.5 276.6,149.5 280.2,158.7 195.4,158.7 	"/>
	<rect x="221.8" y="131.1" class="st6" width="31.9" height="45.5"/>
	<rect x="221.8" y="151.6" class="st6" width="31.9" height="25.1"/>
	<rect x="228.4" y="156.1" class="st7" width="18.7" height="20.5"/>
	<rect x="229.4" y="157.2" class="st8" width="16.7" height="19.4"/>
	<polygon class="st9" points="236,157.2 229.4,157.2 229.4,161.2 242.3,176.7 246.1,176.7 246.1,169.1 	"/>
	<rect x="237.4" y="156.1" class="st7" width="0.8" height="20.5"/>
	<rect x="204.1" y="162.6" class="st7" width="15" height="9.6"/>
	<rect x="204.6" y="163.1" class="st10" width="13.9" height="8.6"/>
	<polygon class="st9" points="214.1,163.1 211.1,163.1 209.4,163.1 216.7,171.7 218.6,171.7 218.6,168.4 	"/>
	<polygon class="st9" points="208,163.1 205.3,163.1 212.6,171.7 215.4,171.7 	"/>
	<g>
		<g>
			<rect x="208.8" y="162.6" class="st7" width="0.4" height="9.6"/>
			<rect x="214.3" y="162.6" class="st7" width="0.4" height="9.6"/>
		</g>
		<rect x="204" y="167.2" class="st7" width="15" height="0.4"/>
	</g>
	<rect x="256.8" y="162.6" class="st7" width="15" height="9.6"/>
	<rect x="257.4" y="163.1" class="st10" width="13.9" height="8.6"/>
	<polygon class="st9" points="266.9,163.1 263.8,163.1 262.2,163.1 269.5,171.7 271.3,171.7 271.3,168.4 	"/>
	<polygon class="st9" points="260.8,163.1 258,163.1 265.3,171.7 268.2,171.7 	"/>
	<g>
		<g>
			<rect x="261.5" y="162.6" class="st7" width="0.4" height="9.6"/>
			<rect x="267.1" y="162.6" class="st7" width="0.4" height="9.6"/>
		</g>
		<rect x="256.8" y="167.2" class="st7" width="15" height="0.4"/>
	</g>
	<polygon class="st5" points="199.1,122.4 276.6,122.4 280.2,131.6 195.4,131.6 	"/>
	<rect x="203.8" y="135.5" class="st7" width="15" height="9.6"/>
	<rect x="204.4" y="136" class="st10" width="13.9" height="8.6"/>
	<polygon class="st9" points="213.9,136 210.8,136 209.2,136 216.4,144.6 218.3,144.6 218.3,141.3 	"/>
	<polygon class="st9" points="207.7,136 205,136 212.3,144.6 215.2,144.6 	"/>
	<g>
		<g>
			<rect x="208.5" y="135.5" class="st7" width="0.4" height="9.6"/>
			<rect x="214.1" y="135.5" class="st7" width="0.4" height="9.6"/>
		</g>
		<rect x="203.8" y="140.1" class="st7" width="15" height="0.4"/>
	</g>
	<rect x="256.8" y="135.5" class="st7" width="15" height="9.6"/>
	<rect x="257.4" y="136" class="st10" width="13.9" height="8.6"/>
	<polygon class="st9" points="266.9,136 263.8,136 262.2,136 269.5,144.6 271.3,144.6 271.3,141.3 	"/>
	<polygon class="st9" points="260.8,136 258,136 265.3,144.6 268.2,144.6 	"/>
	<g>
		<g>
			<rect x="261.5" y="135.5" class="st7" width="0.4" height="9.6"/>
			<rect x="267.1" y="135.5" class="st7" width="0.4" height="9.6"/>
		</g>
		<rect x="256.8" y="140.1" class="st7" width="15" height="0.4"/>
	</g>
	<rect x="229.9" y="135.3" class="st7" width="15" height="9.6"/>
	<rect x="230.5" y="135.8" class="st10" width="13.9" height="8.6"/>
	<polygon class="st9" points="240,135.8 236.9,135.8 235.3,135.8 242.5,144.4 244.4,144.4 244.4,141.1 	"/>
	<polygon class="st9" points="233.8,135.8 231.1,135.8 238.4,144.4 241.3,144.4 	"/>
	<g>
		<g>
			<rect x="234.6" y="135.3" class="st7" width="0.4" height="9.6"/>
			<rect x="240.2" y="135.3" class="st7" width="0.4" height="9.6"/>
		</g>
		<rect x="229.9" y="139.9" class="st7" width="15" height="0.4"/>
	</g>
	<rect x="226.2" y="148.3" class="st11" width="23.1" height="6.6"/>
	<text transform="matrix(1 0 0 1 229.5635 152.9978)" class="st12" style="font-family:'Articulate-Bold'; font-size:3.9011px;">COLLEGE</text>
</g>
<g>
	<polygon class="st18" points="0.2,30.9 0.2,0.3 9.5,0.3 18.8,0.3 18.8,30.9 9.5,24.9 	"/>
	<polygon class="st1" points="7.8,11.2 9.2,8.3 10.7,11.2 13.9,11.7 11.6,14 12.1,17.2 9.2,15.7 6.3,17.2 6.9,14 4.5,11.7 	"/>
</g>
</svg>
