<?xml version="1.0" encoding="utf-8"?>
<!-- Generator: Adobe Illustrator 19.1.0, SVG Export Plug-In . SVG Version: 6.00 Build 0)  -->
<svg version="1.1" id="Layer_1" xmlns="http://www.w3.org/2000/svg" xmlns:xlink="http://www.w3.org/1999/xlink" x="0px" y="0px"
	 width="269px" height="170px" viewBox="0 0 269 170" enable-background="new 0 0 269 170" xml:space="preserve">
<g>
	<rect fill="#F5D03D" width="269" height="170"/>
	<path fill="#FFFFFF" d="M107.4,27.7c-6.2,0-11.2,5-11.2,11.2v97.6c0,6.2,5,11.2,11.2,11.2h50.2c6.2,0,11.2-5,11.2-11.2V38.8
		c0-6.2-5-11.2-11.2-11.2H107.4z M107.4,30.5h50.2c4.7,0,8.4,3.7,8.4,8.4v2.8H99v-2.8C99,34.2,102.8,30.5,107.4,30.5z M99,44.4H166
		v83.7H99V44.4z M99,130.9H166v5.6c0,4.7-3.7,8.4-8.4,8.4h-50.2c-4.7,0-8.4-3.7-8.4-8.4V130.9z"/>
</g>
</svg>
