<?xml version="1.0" encoding="utf-8"?>
<!-- Generator: Adobe Illustrator 19.1.0, SVG Export Plug-In . SVG Version: 6.00 Build 0)  -->
<svg version="1.1" id="Layer_1" xmlns="http://www.w3.org/2000/svg" xmlns:xlink="http://www.w3.org/1999/xlink" x="0px" y="0px"
	 width="269px" height="170px" viewBox="0 0 269 170" enable-background="new 0 0 269 170" xml:space="preserve">
<g>
	<rect fill="#4880C2" width="269" height="170"/>
	<path fill="#FFFFFF" d="M183.3,32.9H88.3c-6.4,0-11.9,5.4-11.9,11.9v65.3c0,6.4,5.4,11.9,11.9,11.9h15.8v19.8
		c0,0.8,0.5,1.5,1.3,1.8c0.2,0.1,0.5,0.1,0.7,0.1c0.6,0,1.1-0.2,1.5-0.7l19.2-21.1h56.5c6.4,0,11.9-5.4,11.9-11.9V44.8
		C195.2,38.4,189.7,32.9,183.3,32.9z M191.2,110.1c0,4.3-3.6,7.9-7.9,7.9h-53l7.1-8.2c0.7-0.8,0.6-2.1-0.2-2.8s-2.1-0.6-2.8,0.2
		l-9.9,11.5l-16.3,17.9v-16.6c0-1.1-0.9-2-2-2H88.3c-4.3,0-7.9-3.6-7.9-7.9V44.8c0-4.3,3.6-7.9,7.9-7.9h94.9c4.3,0,7.9,3.6,7.9,7.9
		V110.1z"/>
	<path fill="#FFFFFF" d="M133.3,52.3h-32.1c-0.8,0-1.5,1.1-1.5,2.4c0,1.3,0.7,2.4,1.5,2.4h32.1c0.8,0,1.5-1.1,1.5-2.4
		C134.8,53.4,134.1,52.3,133.3,52.3z"/>
	<path fill="#FFFFFF" d="M166.1,68.4h-63.5c-1.6,0-2.9,1.1-2.9,2.4s1.3,2.4,2.9,2.4h63.5c1.6,0,2.9-1.1,2.9-2.4
		C169,69.5,167.7,68.4,166.1,68.4z"/>
	<path fill="#FFFFFF" d="M166.5,86.7H103c-1.6,0-2.9,1.1-2.9,2.4c0,1.3,1.3,2.4,2.9,2.4h63.5c1.6,0,2.9-1.1,2.9-2.4
		C169.4,87.8,168.1,86.7,166.5,86.7z"/>
</g>
</svg>
